<?xml version="1.0" encoding="utf-8"?>
<!-- Generator: Adobe Illustrator 23.1.0, SVG Export Plug-In . SVG Version: 6.00 Build 0)  -->
<svg version="1.1" id="Layer_1" xmlns="http://www.w3.org/2000/svg" xmlns:xlink="http://www.w3.org/1999/xlink" x="0px" y="0px"
	 viewBox="0 0 3301.1 1333.3" style="enable-background:new 0 0 3301.1 1333.3;" xml:space="preserve">
<style type="text/css">
	.st0{fill:#FFFFFF;}
	.st1{fill:url(#SVGID_1_);}
	.st2{fill:url(#SVGID_2_);}
	.st3{fill:url(#SVGID_3_);}
	.st4{fill:url(#SVGID_4_);}
	.st5{fill:url(#SVGID_5_);}
	.st6{fill:url(#SVGID_6_);}
	.st7{fill:url(#SVGID_7_);}
	.st8{fill:url(#SVGID_8_);}
	.st9{fill:url(#SVGID_9_);}
	.st10{fill:url(#SVGID_10_);}
	.st11{fill:url(#SVGID_11_);}
	.st12{fill:url(#SVGID_12_);}
	.st13{fill:url(#SVGID_13_);}
	.st14{fill:url(#SVGID_14_);}
	.st15{fill:url(#SVGID_15_);}
	.st16{fill:url(#SVGID_16_);}
	.st17{fill:url(#SVGID_17_);}
	.st18{fill:url(#SVGID_18_);}
	.st19{fill:url(#SVGID_19_);}
	.st20{fill:url(#SVGID_20_);}
	.st21{fill:url(#SVGID_21_);}
	.st22{fill:url(#SVGID_22_);}
	.st23{fill:url(#SVGID_23_);}
	.st24{fill:url(#SVGID_24_);}
	.st25{fill:url(#SVGID_25_);}
	.st26{fill:url(#SVGID_26_);}
	.st27{fill:url(#SVGID_27_);}
	.st28{fill:url(#SVGID_28_);}
	.st29{fill:url(#SVGID_29_);}
	.st30{fill:url(#SVGID_30_);}
	.st31{fill:url(#SVGID_31_);}
	.st32{fill:url(#SVGID_32_);}
	.st33{fill:url(#SVGID_33_);}
	.st34{fill:url(#SVGID_34_);}
	.st35{fill:url(#SVGID_35_);}
	.st36{fill:url(#SVGID_36_);}
	.st37{fill:url(#SVGID_37_);}
	.st38{fill:url(#SVGID_38_);}
	.st39{fill:url(#SVGID_39_);}
	.st40{fill:url(#SVGID_40_);}
	.st41{fill:url(#SVGID_41_);}
	.st42{fill:url(#SVGID_42_);}
	.st43{fill:url(#SVGID_43_);}
	.st44{fill:url(#SVGID_44_);}
	.st45{fill:url(#SVGID_45_);}
</style>
<g>
	<g>
		<g>
			<path class="st0" d="M1215.1,1333.3c-91.3,0-178.3-21-253.3-63.6c-134.6-76.4-222.4-211.7-297.1-346.5c-11-19.9-22-40-32.9-60.1
				c-62-114.2-126.2-232.2-219.3-322.9C280.7,411.9,130.3,364,10.3,411.9l-2.7-6.8c122.8-49.1,276.1-0.5,410,129.8
				c93.9,91.5,158.4,210,220.6,324.7c10.9,20.1,21.8,40.1,32.8,60c74.3,133.8,161.3,268.1,294.4,343.6
				c168,95.4,397.5,81.1,598.9-37.3c189.4-111.3,329.5-289.3,446-447.4c18-24.4,35.8-49,53.7-73.6
				c106.4-146.3,216.4-297.6,354.4-417c250.2-216.5,559.9-316.2,872.2-281l-0.8,7.3c-310.2-35.1-617.9,64.1-866.5,279.2
				c-137.3,118.9-247.1,269.8-353.2,415.8c-17.9,24.6-35.8,49.2-53.7,73.6c-116.9,158.7-257.5,337.3-448.1,449.4
				C1454.1,1299.3,1331.1,1333.3,1215.1,1333.3z"/>
		</g>
		<g>
			
				<linearGradient id="SVGID_1_" gradientUnits="userSpaceOnUse" x1="-792.9559" y1="679.0683" x2="3220.3665" y2="679.0683" gradientTransform="matrix(0.8182 0 0 -1 655.8965 1336.2589)">
				<stop  offset="0" style="stop-color:#E9FDFF"/>
				<stop  offset="1" style="stop-color:#EAF4FB"/>
			</linearGradient>
			<path class="st1" d="M1253.9,1293.8c-59.1,0-117.1-8.6-171.9-26.1c-39.4-12.5-77-29.6-111.7-50.9
				c-133.3-81.7-222.9-220-296.4-343.2c-8.1-13.6-16.2-27.3-24.3-41c-19.2-32.5-39.1-66-59.3-98.4
				c-42.6-68.3-101.4-155.5-179.6-224.8c-64.3-56.9-231.8-181.5-399.9-109.8L7.1,391c173-73.8,344.2,53.3,409.8,111.4
				c79,70.1,138.4,158,181.3,226.8c20.3,32.5,40.2,66.1,59.4,98.6c8.1,13.7,16.2,27.3,24.3,41c72.9,122.3,161.8,259.5,293.2,340.1
				c34.1,20.9,71,37.7,109.7,50c147.9,47.1,319.8,28.7,471.6-50.6c99.2-51.8,193.2-130,287.4-238.9c57.2-66.2,109.9-138,158.3-205.6
				c8.7-12.1,17.3-24.3,26-36.4c15.1-21.1,30.1-42.3,45.3-63.4c67.6-93.7,149.3-201.3,243.1-288.3c33.3-30.9,68.1-59.6,103.5-85.2
				c113.9-82.6,245-145.6,425-204.3c90.5-29.5,161.9-47.1,231.6-57.2c79.8-11.5,149.9-11.3,214.2,0.6l-1.7,9.2
				c-63.3-11.7-132.4-11.9-211.2-0.5c-69.2,10-140.1,27.5-230.1,56.8c-179,58.4-309.3,121-422.4,203
				c-35.1,25.4-69.6,53.8-102.6,84.4c-93.2,86.4-174.6,193.5-241.9,286.9c-15.2,21.1-30.3,42.2-45.3,63.4
				c-8.7,12.2-17.3,24.3-26,36.4c-48.5,67.8-101.3,139.8-158.8,206.3c-95,109.9-189.9,188.7-290.2,241.1
				C1462.9,1267.6,1356.8,1293.8,1253.9,1293.8z"/>
		</g>
		<g>
			
				<linearGradient id="SVGID_2_" gradientUnits="userSpaceOnUse" x1="-2050.9004" y1="687.3752" x2="3110.9475" y2="687.3752" gradientTransform="matrix(0.6364 0 0 -1 1311.793 1336.2589)">
				<stop  offset="0" style="stop-color:#D3FCFF"/>
				<stop  offset="0.4416" style="stop-color:#D4F1FB"/>
				<stop  offset="1" style="stop-color:#D5E8F8"/>
			</linearGradient>
			<path class="st2" d="M1295.4,1257.3c-71.7,0-142.8-12.7-209.3-38.3c-37.8-14.4-73.9-33-107.5-55.1
				c-124.2-82.3-214.1-213.1-295.4-340L670,803.4c-24.1-37.5-48.9-76.3-74.5-113.4C530.3,595,472.8,529.8,409,478.6
				C343.8,426.4,174.6,313,11.3,387.2l-4.7-10.3c169.1-76.8,342.7,39.3,409.5,92.8c64.7,52,122.9,117.9,188.8,213.8
				c25.7,37.2,50.6,76.1,74.7,113.7l13.2,20.5c80.7,125.9,169.8,255.6,292.2,336.6c32.8,21.7,68.3,39.8,105.3,54
				c144.9,55.7,312,49.1,458.5-18c100-45.8,197.6-124.4,289.9-233.5c55.9-66,105.4-136.1,155.4-208.2l9.7-13.9
				c19.8-28.5,40.3-58,60.8-86.8c92.6-129.6,169.7-216.3,250.2-281.1c34.2-27.6,69.3-51.8,107.3-74.2
				c112.1-66.3,232.5-106.1,360-148.3c22.8-7.5,45.8-15.1,69-23l22.1-7.5c69.5-23.5,135.1-45.8,204.9-60.1
				c83.1-17.1,152.9-17.7,213.5-1.8l-2.9,11c-58.9-15.4-127-14.7-208.4,2c-69.1,14.2-134.4,36.3-203.5,59.8l-22.1,7.5
				c-23.2,7.8-46.2,15.5-69.1,23c-126.9,41.9-246.7,81.6-357.8,147.3c-37.6,22.1-72.2,46.1-106,73.3
				c-79.7,64.1-156.2,150.1-248.1,278.8c-20.5,28.7-41,58.2-60.7,86.7l-9.7,14c-50.2,72.3-99.9,142.6-156.1,209
				c-93.4,110.4-192.3,189.9-293.9,236.4C1471.4,1238.3,1382.9,1257.3,1295.4,1257.3z"/>
		</g>
		<g>
			
				<linearGradient id="SVGID_3_" gradientUnits="userSpaceOnUse" x1="-4314.7285" y1="693.469" x2="2915.6343" y2="693.469" gradientTransform="matrix(0.4545 0 0 -1 1967.144 1336.2589)">
				<stop  offset="0" style="stop-color:#BEFAFF"/>
				<stop  offset="0.5756" style="stop-color:#BFE6F7"/>
				<stop  offset="1" style="stop-color:#C0DDF4"/>
			</linearGradient>
			<path class="st3" d="M1337.1,1224.8c-83.3,0-167.2-18.3-247-54.6c-36.1-16.3-70.8-36.3-103.1-59.3
				c-123.2-88-214.2-220.1-294.4-336.6c-29.3-42.3-59.5-86.1-91.7-128.4c-66.2-87.6-127.7-150.5-193.4-198.1
				C268,347.3,123.8,320.7,11.9,374.8l-5.8-12c116.5-56.3,265.6-29.2,409.2,74.2c66.9,48.4,129.3,112.2,196.3,200.8
				c32.3,42.5,62.7,86.4,92,128.9c79.7,115.6,170,246.6,291.2,333.3c31.6,22.5,65.6,42,100.9,58c144.4,65.8,302.6,71,445.5,14.5
				c102-40.3,200.3-117,292.3-227.9c56.1-67.7,105.1-140.4,152.5-210.7c21.3-31.6,45.4-67.4,69.7-101.7
				c90.5-128,172.4-215.1,257.4-273.9c34.8-24.1,71.1-44.8,111.2-63.3c81.1-37.7,164.7-60.4,253.2-84.5
				c58.3-15.9,118.6-32.3,179.6-53.6c26-9.1,51.8-18.9,76.7-28.3c49.3-18.7,95.8-36.4,145.5-49.7c84.8-22.8,154.5-24.1,213-4.2
				l-4.3,12.6c-55.9-19-123.1-17.6-205.3,4.5c-49.1,13.2-95.3,30.7-144.2,49.3c-25,9.5-50.8,19.3-77,28.4
				c-61.4,21.5-121.9,37.9-180.5,53.9c-87.9,23.9-171,46.5-251.1,83.8c-39.4,18.1-75.1,38.4-109.2,62.1
				c-83.8,58-164.5,144-254.1,270.7c-24.2,34.2-48.3,69.9-69.5,101.5c-47.6,70.6-96.7,143.5-153.3,211.8
				c-93.5,112.7-193.6,190.7-297.7,231.8C1478.7,1211.6,1408.1,1224.8,1337.1,1224.8z"/>
		</g>
		<g>
			
				<linearGradient id="SVGID_4_" gradientUnits="userSpaceOnUse" x1="-9598.9746" y1="697.9482" x2="2457.1301" y2="697.9482" gradientTransform="matrix(0.2727 0 0 -1 2623.0405 1336.2589)">
				<stop  offset="0" style="stop-color:#A8F8FF"/>
				<stop  offset="8.334416e-02" style="stop-color:#A8F4FD"/>
				<stop  offset="0.6527" style="stop-color:#AADBF4"/>
				<stop  offset="1" style="stop-color:#ABD2F1"/>
			</linearGradient>
			<path class="st4" d="M1374.9,1195.9c-93.2,0-188.2-25-280.9-74.5c-34.4-18.2-67.6-39.6-98.7-63.5
				c-109.7-84.6-195.6-200.8-278.6-313.2L702,724.8c-27.8-37.4-61-81.3-95.7-122.8C537.7,519.9,474,461.2,406,417.3
				c-83-53.4-244.3-131.5-393.6-54.8l-7-13.6c156.1-80.2,323.1,0.4,408.8,55.5c69.4,44.8,134.1,104.5,203.8,187.8
				c35,41.8,68.3,85.9,96.3,123.5l14.7,19.9c82.4,111.5,167.7,226.9,275.6,310.1c30.4,23.4,62.9,44.3,96.6,62.1
				c144.1,77,293.6,93.2,432.4,46.9c102.3-34.1,204.2-111,294.6-222.4c52.3-64.4,98.7-135.4,143.6-204l6-9.2
				c21.7-33.1,44.8-68.4,68.9-102.7c89.1-127.2,175.8-214.5,264.8-266.9c35.1-20.7,72.8-37.8,115.2-52.3
				c66-22.5,132.2-34.8,202.4-47.7c75.9-14,154.3-28.5,233.9-57.2c35-12.6,68.8-27.4,101.5-41.8c37.4-16.4,76.1-33.3,115.8-46.6
				c86-28.6,155.6-30.8,212.8-6.6l-6,14.1c-53.6-22.7-119.6-20.4-201.9,7c-39,13-75.7,29.1-114.5,46.1
				c-32.9,14.4-67,29.3-102.5,42.1c-80.7,29.2-159.8,43.8-236.3,57.9c-69.6,12.8-135.3,25-200.2,47.1c-41.4,14.1-78.1,30.8-112.3,51
				c-87.1,51.2-172.2,137-260,262.5c-23.9,34.2-47,69.3-68.6,102.3l-6,9.2c-45.1,68.9-91.7,140.2-144.5,205.3
				c-92.3,113.6-196.6,192.2-301.7,227.2C1485.2,1187,1430.3,1195.9,1374.9,1195.9z"/>
		</g>
		<g>
			
				<linearGradient id="SVGID_5_" gradientUnits="userSpaceOnUse" x1="-36019.1055" y1="701.0153" x2="164.6112" y2="701.0153" gradientTransform="matrix(9.090000e-02 0 0 -1 3278.9368 1336.2589)">
				<stop  offset="0" style="stop-color:#92F6FF"/>
				<stop  offset="0.2291" style="stop-color:#93E8FA"/>
				<stop  offset="0.7079" style="stop-color:#95CFF0"/>
				<stop  offset="1" style="stop-color:#96C6ED"/>
			</linearGradient>
			<path class="st5" d="M1409.5,1169.7c-101.9,0-207.7-32.8-311.7-97.3c-32.6-20.1-64.4-42.8-94.3-67.6
				c-95.4-79.4-175.3-181-252.5-279.2c-13.3-16.9-26.4-33.6-39.6-50.2c-37.9-47.4-69.5-84.6-99.7-117.3
				c-69.5-75.3-137.3-131.4-207.2-171.5c-83.7-47.7-245.8-116-391.4-36.6l-8.3-15.2c153-83.4,321.5-12.8,408.3,36.7
				c71.4,40.9,140.6,98.1,211.3,174.7c30.4,33,62.3,70.5,100.5,118.2c13.2,16.6,26.4,33.4,39.7,50.3
				c76.7,97.5,156,198.4,249.9,276.6c29.3,24.3,60.4,46.5,92.4,66.2c141.8,88,286.8,115.4,419.3,79.2
				C1657.5,1101,1760,999.2,1823,920.1c49.4-62.1,92.8-130.6,134.7-196.8l12-18.9c21.3-33.5,44.2-69.3,68.1-103.7
				c88.1-126.9,179.7-214.4,272.4-259.9c36-17.8,75.1-31.3,119.2-41.2c57.5-13,117-18.1,174.5-23.1c86.1-7.4,175.1-15.1,264.9-48.7
				c40-14.9,77.7-34,114.1-52.4c31.7-16.1,64.5-32.7,98.3-46.2c86.9-34.7,156.5-37.7,212.7-8.9l-7.9,15.4
				c-51.5-26.3-116.4-23.2-198.4,9.6c-33.1,13.2-64.1,28.9-96.9,45.6c-36.8,18.7-74.9,37.9-115.9,53.2
				c-92,34.4-182.2,42.2-269.5,49.7c-59.6,5.2-115.9,10-172.2,22.8c-42.8,9.7-80.6,22.7-115.4,39.9
				c-90,44.2-179.4,129.7-265.8,254.2c-23.7,34.2-46.6,69.7-67.7,103.1l-12,18.9c-42.2,66.6-85.8,135.5-135.8,198.3
				c-64.5,81.1-170,185.6-305.7,222.7C1491.3,1164.3,1450.7,1169.7,1409.5,1169.7z"/>
		</g>
		<g>
			
				<linearGradient id="SVGID_6_" gradientUnits="userSpaceOnUse" x1="7038.8701" y1="702.575" x2="43242.3906" y2="702.575" gradientTransform="matrix(-9.090000e-02 0 0 -1 3934.8333 1336.2589)">
				<stop  offset="0" style="stop-color:#7CF5FF"/>
				<stop  offset="0.3301" style="stop-color:#7EDDF6"/>
				<stop  offset="0.7461" style="stop-color:#80C4ED"/>
				<stop  offset="1" style="stop-color:#81BBEA"/>
			</linearGradient>
			<path class="st6" d="M1436.5,1146.9c-107.7,0-220-41.4-335-123.6c-30.8-21.9-61-46-89.8-71.7c-80.2-72-151.5-158.2-220.5-241.7
				c-23-27.8-46.8-56.6-70.3-84c-37.4-43.5-71.2-80-103.6-111.7c-71.4-69.9-141.4-121.7-214-158.2C318.8,313.8,156,255.3,13.8,337.6
				l-9.7-16.7c111.2-64.3,256-58,407.8,17.9c74.5,37.4,146.1,90.3,218.9,161.6c32.7,32.1,67,69,104.7,112.9
				c23.6,27.6,47.4,56.4,70.5,84.3c68.5,82.9,139.4,168.6,218.5,239.6c28.2,25.2,57.9,48.9,88.1,70.3
				c141.6,101.3,278.3,138.7,406.2,111.3c103.9-22.2,210-97.2,298.8-211.1c47-60.4,87.9-127.1,127.4-191.6l16.4-26.7
				c20.6-33.4,43-69.2,67.3-104.7c88.5-128.7,182.7-213.8,280.1-252.9c37.1-15,77.5-24.8,123.4-30.1c52.4-6.1,106.1-5.3,158-4.5
				c92.7,1.4,188.6,2.8,284.5-34.1c43-16.5,82.4-39.4,120.5-61.6c28-16.3,56.9-33.1,86.9-47.2c87.6-41.1,157.3-44.8,212.9-11.2
				l-10,16.5c-49.7-30-113.3-26-194.7,12.2c-29.2,13.7-57.8,30.3-85.4,46.4c-38.8,22.6-78.8,45.9-123.2,62.9
				c-99.4,38.3-197.2,36.8-291.7,35.4c-53.6-0.8-104.3-1.6-155.5,4.4c-44.1,5.1-82.9,14.6-118.4,28.9
				c-93.8,37.6-185.1,120.4-271.4,245.9c-24.1,35.1-46.4,70.7-66.8,103.9l-16.4,26.7c-39.8,64.9-80.9,132.1-128.7,193.3
				c-91.6,117.5-201.6,195-310,218.2C1494.5,1143.9,1465.6,1146.9,1436.5,1146.9z"/>
		</g>
		<g>
			
				<linearGradient id="SVGID_7_" gradientUnits="userSpaceOnUse" x1="4747.4502" y1="702.6577" x2="16821.8906" y2="702.6577" gradientTransform="matrix(-0.2727 0 0 -1 4590.7295 1336.2589)">
				<stop  offset="0" style="stop-color:#66F3FF"/>
				<stop  offset="0.4034" style="stop-color:#69D1F2"/>
				<stop  offset="0.7743" style="stop-color:#6BB8E9"/>
				<stop  offset="1" style="stop-color:#6CAFE6"/>
			</linearGradient>
			<path class="st7" d="M1455.5,1126.7c-111.8,0-224.7-49.5-350.4-152.6c-29-23.6-57.7-49.1-85.3-75.7
				c-63.7-61.7-123.4-131.3-181.2-198.6c-35.3-41.1-71.7-83.6-108.2-123.2c-37.7-40.8-72.8-75.5-107.5-106.1
				c-72.1-63.8-146.4-112.6-220.9-145c-146.8-63.5-284.4-63.7-387.6-0.4l-11-18.2c109.3-67,253.9-67.3,407.2-1
				C487,339.2,563.2,389.2,637,454.5c35.2,31.1,70.8,66.3,109,107.6c36.7,39.9,73.3,82.5,108.7,123.8
				c57.5,67,116.9,136.2,179.8,197.2c27.2,26.2,55.4,51.3,84,74.5c143,117.4,268,162.9,393.2,143.4
				c142-22.1,249.3-138.3,300.7-205.5c45.1-59,83.8-124.4,121.2-187.6c6.6-11.1,13.1-22.2,19.7-33.2c19-31.8,41.8-69.3,66.6-105.7
				c61.2-89.9,160.8-205.5,287.9-245.9c38.7-12.3,80.4-18.5,127.6-19c49.6-0.7,99.9,5.2,148.5,10.9c97,11.3,197.3,23,296.7-16.5
				c44.7-17.7,84.7-44.2,123.3-69.9c25.4-16.8,51.6-34.3,79-49.1c87.1-47.1,158.8-51.6,213.2-13.5l-12.2,17.5
				c-47.3-33.1-111.5-28.1-190.8,14.8c-26.6,14.4-52.4,31.5-77.4,48.1c-39.5,26.3-80.4,53.4-127.3,72
				c-104.3,41.4-207.4,29.4-307,17.8c-48-5.6-97.7-11.4-145.8-10.7c-45,0.4-84.7,6.3-121.3,18C2193,382,2096.8,494,2037.5,581.1
				c-24.5,35.9-47,73.1-65.9,104.6c-6.6,11-13.1,22.1-19.7,33.1c-37.7,63.7-76.8,129.6-122.6,189.7
				c-53.3,69.8-164.9,190.3-314.3,213.6C1495.2,1125.2,1475.4,1126.7,1455.5,1126.7z"/>
		</g>
		<g>
			
				<linearGradient id="SVGID_8_" gradientUnits="userSpaceOnUse" x1="4289.3857" y1="701.9238" x2="11538.0117" y2="701.9238" gradientTransform="matrix(-0.4545 0 0 -1 5246.626 1336.2589)">
				<stop  offset="0" style="stop-color:#50F1FF"/>
				<stop  offset="2.923274e-02" style="stop-color:#50EEFE"/>
				<stop  offset="0.4558" style="stop-color:#54C6EF"/>
				<stop  offset="0.7941" style="stop-color:#56ADE6"/>
				<stop  offset="1" style="stop-color:#57A4E3"/>
			</linearGradient>
			<path class="st8" d="M1473,1108c-149,0-272.1-96.6-364.4-183.2c-26.9-25.1-54.1-51.9-80.8-79.7c-45.1-47.2-89.4-97.9-132.2-146.9
				C845.4,640.7,793.4,581.1,740,527.3c-38.8-39-75.2-71.9-111.3-100.5C555.3,368.1,478.7,323.7,401,295
				c-104.4-38.5-256-66.6-385.7,17.6L2.6,293c137.8-89.5,297.1-60.2,406.5-19.9c80,29.6,158.8,75.2,234.1,135.4
				c36.8,29.2,73.9,62.7,113.3,102.3c53.9,54.4,106.2,114.2,156.7,172.1c42.6,48.8,86.7,99.3,131.4,146.1
				c26.3,27.4,53.2,54,79.8,78.8c95.6,89.7,225.2,190.6,380.2,175.3c105-10.4,215.2-83.3,302.4-199.9
				c43.4-58,80.2-122.3,115.8-184.6c7.4-12.9,14.8-25.8,22.2-38.7c18.5-32,40.8-69.6,65.8-106.8c61.6-91.4,163-207,295.9-238.9
				c39.9-9.6,83-12.1,131.8-7.7c47.7,4.2,95.7,14.6,142.2,24.7c104.9,22.7,204.1,44.2,305.6,2.7c45.8-18.7,85.6-48.6,124-77.5
				c23.4-17.6,47.7-35.8,73.2-51.5c86.4-53.1,160.3-58.6,213.6-15.7l-14.6,18.2c-45.6-36.6-108.4-30.8-186.8,17.4
				c-24.6,15.1-48.4,33-71.4,50.3c-39.7,29.8-80.7,60.7-129.2,80.5c-108.2,44.2-215.6,21-319.4-1.5c-45.8-9.9-93.1-20.2-139.3-24.2
				c-46.2-4.2-86.8-1.9-124.3,7.1c-125.7,30.1-222.7,141.3-282.1,229.3c-24.6,36.5-46.7,73.8-65,105.4
				c-7.4,12.8-14.8,25.7-22.2,38.6c-36,62.8-73.1,127.8-117.4,187c-53.5,71.6-166.1,194-318.8,209.1
				C1495.6,1107.5,1484.2,1108,1473,1108z"/>
		</g>
		<g>
			
				<linearGradient id="SVGID_9_" gradientUnits="userSpaceOnUse" x1="4091.1021" y1="700.6946" x2="9271.1777" y2="700.6946" gradientTransform="matrix(-0.6364 0 0 -1 5901.9775 1336.2589)">
				<stop  offset="0" style="stop-color:#3BEFFF"/>
				<stop  offset="0.1057" style="stop-color:#3CE3FB"/>
				<stop  offset="0.4986" style="stop-color:#3FBBEC"/>
				<stop  offset="0.8103" style="stop-color:#41A2E2"/>
				<stop  offset="1" style="stop-color:#4299DF"/>
			</linearGradient>
			<path class="st9" d="M1485.3,1090.9c-151,0-273.2-108.4-373.2-215.5c-24.3-25.8-49.9-54-76.2-83.6c-23.4-26.5-47.1-53.9-70-80.4
				C897,631.6,825.8,549.2,749.7,478c-39.3-36.7-76.9-67.7-115.1-95c-74.3-53.3-155.4-94.3-234.4-118.6
				c-104.9-32.1-256.6-52-384,35.6L1.8,279.2c135.7-93.3,295.6-72.7,405.8-38.9c82.9,25.5,164.2,66.6,241.7,122.2
				c39.1,27.9,77.6,59.6,117.7,97.1c77.1,72.1,148.7,155.1,218,235.3c22.8,26.4,46.5,53.8,69.8,80.2c26.1,29.4,51.6,57.4,75.7,83.1
				c104.1,111.4,220.6,213.5,367.3,207.2c106.2-4.6,217-75.4,304-194.3c41.9-57.2,77-120.8,111-182.4c8-14.5,16-29,24.1-43.4
				c17-30.3,39.7-69.8,65.1-107.8c50.9-76.2,158-207.6,304.1-231.9c41.3-6.9,85.8-5.7,136,3.7c46.7,8.6,93.3,23.3,138.4,37.5
				c107.5,33.9,209.1,65.8,311.8,22.7c46.3-19.4,83.7-51.1,123.3-84.7c21.9-18.6,44.6-37.7,68.7-54.4c87-60.2,161-66.4,214.1-18
				l-17,18.7c-54.8-50-129.6-16.7-182.7,20.1c-23.1,16-45.3,34.8-66.7,52.9c-39.3,33.3-80,67.7-129.9,88.7
				c-111.3,46.8-222.1,11.9-329.2-21.9c-44.4-14-90.3-28.4-135.5-36.8c-47.3-8.9-88.9-10-127.2-3.6
				c-136.7,22.8-238.6,148.2-287.2,221c-24.9,37.2-47.3,76.3-64,106.1c-8.1,14.4-16,28.8-24,43.3c-34.4,62.2-69.9,126.6-112.7,185.1
				c-91.6,125.1-209.5,199.7-323.4,204.6C1494.3,1090.8,1489.8,1090.9,1485.3,1090.9z"/>
		</g>
		<g>
			
				<linearGradient id="SVGID_10_" gradientUnits="userSpaceOnUse" x1="3982.1235" y1="704.8939" x2="8013.9009" y2="704.8939" gradientTransform="matrix(-0.8182 0 0 -1 6557.8735 1336.2589)">
				<stop  offset="0" style="stop-color:#25EEFF"/>
				<stop  offset="0.1819" style="stop-color:#27D7F7"/>
				<stop  offset="0.5413" style="stop-color:#2AAFE8"/>
				<stop  offset="0.8265" style="stop-color:#2C96DF"/>
				<stop  offset="1" style="stop-color:#2D8DDC"/>
			</linearGradient>
			<path class="st10" d="M1493.9,1074.8c-1.1,0-2.1,0-3.2,0c-159.3-1.9-277.2-129.5-375.2-248.9c-16.5-20-33-40.3-49.7-60.7
				l-21.9-26.8C943.9,616,859.4,515.5,759.5,428.8c-39.9-34.5-78.8-63.8-118.9-89.4c-76.3-48.9-159.8-85.4-241.2-105.5
				C294.1,208,142.4,196.2,17,287.4L0.9,265.3c133.9-97.4,294.1-85.3,405-58c84.3,20.8,170.6,58.5,249.4,109
				c41.3,26.3,81.2,56.4,122.1,91.8C887,503.3,985.7,624,1065,721.1l21.9,26.8c16.7,20.4,33.2,40.6,49.7,60.6
				c94.1,114.7,206.8,237.2,354.4,238.9c152.6,1.7,264.5-131.3,305.6-188.7c40.6-56.6,74.2-119.7,106.7-180.7
				c8.5-15.9,16.9-31.8,25.5-47.6c16.6-30.5,38.9-70.5,64.3-108.9c51.3-77.6,160.1-209.9,312.3-224.9c42.6-4.2,88.5,0.7,140.1,15.1
				c46.2,12.8,92.1,31.7,136.5,49.9c109.5,45,213,87.6,316.2,43c46.5-20.1,83-54.7,121.7-91.4c20.7-19.6,42.1-39.9,65.1-57.7
				c86.3-66.6,162.6-73.7,214.7-20.2l-19.5,19.1c-52.9-54.2-126.3-17.6-178.5,22.7c-21.9,16.9-42.8,36.7-63,55.9
				c-38.7,36.7-78.8,74.6-129.7,96.6c-113.7,49.1-227.4,2.4-337.4-42.8c-43.7-17.9-88.8-36.5-133.4-48.9
				c-48.3-13.5-90.9-18.1-130.2-14.3c-141,13.8-243.6,139.2-292.2,212.8c-24.8,37.5-46.8,76.8-63.1,106.9
				c-8.6,15.7-17,31.5-25.4,47.4c-32.9,61.8-67,125.7-108.6,183.8C1727.4,1002,1609.2,1074.8,1493.9,1074.8z"/>
		</g>
		<g>
			
				<linearGradient id="SVGID_11_" gradientUnits="userSpaceOnUse" x1="3912.6702" y1="725.1279" x2="7213.77" y2="725.1279" gradientTransform="matrix(-1 0 0 -1 7213.77 1336.2589)">
				<stop  offset="0" style="stop-color:#0FECFF"/>
				<stop  offset="0.234" style="stop-color:#12CCF3"/>
				<stop  offset="0.5704" style="stop-color:#15A4E4"/>
				<stop  offset="0.8375" style="stop-color:#178BDB"/>
				<stop  offset="1" style="stop-color:#1882D8"/>
			</linearGradient>
			<path class="st11" d="M1499.2,1059.5c-5.6,0-11.3-0.2-16.9-0.6c-154.8-10.2-264.4-145.2-363.4-282.7
				C988.2,594.6,844,407.9,646.6,295.7c-174-98.9-443.1-163.7-628.7-21L0,251.5c197-151.5,479.3-84.6,661.1,18.7
				c202.5,115.1,349,304.6,481.6,488.8c94.9,131.8,199.5,261.3,341.6,270.6c106.8,7,221.5-61.4,307-183.1
				c39.4-56.1,71.6-118.8,102.8-179.5c27.7-53.9,56.3-109.6,90.1-161.3c88.1-134.5,205-213.8,320.7-217.8
				c97.6-3.3,190.4,43.6,280.1,88.9c111,56.3,216,109.3,319.1,63.6c46.4-20.6,81.9-58.1,119.4-97.7c19.7-20.8,40.1-42.3,62.2-61.2
				c85.6-73.1,164.1-81.3,215.4-22.4l-22.1,19.2c-53.6-61.6-132.2-10.5-174.3,25.4c-21,17.9-40.8,38.8-60,59.1
				c-37.9,40-77.1,81.4-128.8,104.3c-115.8,51.4-231.9-7.3-344.2-64c-86.4-43.7-175.9-88.9-265.9-85.7
				c-106,3.6-214.3,78.1-297.2,204.5c-33,50.4-61.3,105.4-88.6,158.6c-31.6,61.5-64.3,125.2-104.8,182.9
				C1728.2,987.3,1611.2,1059.5,1499.2,1059.5z"/>
		</g>
		<g>
			
				<linearGradient id="SVGID_12_" gradientUnits="userSpaceOnUse" x1="3914.0701" y1="730.5221" x2="7212.4702" y2="730.5221" gradientTransform="matrix(-1 0 0 -1 7213.77 1336.2589)">
				<stop  offset="0" style="stop-color:#0FDDF9"/>
				<stop  offset="0.1132" style="stop-color:#13D0F4"/>
				<stop  offset="0.5029" style="stop-color:#21A8E6"/>
				<stop  offset="0.812" style="stop-color:#2A8FDD"/>
				<stop  offset="1" style="stop-color:#2D86DA"/>
			</linearGradient>
			<path class="st12" d="M1497.9,1002.2c-4.5,0-9.1-0.1-13.6-0.3c-161.6-7.9-278.8-147-364.4-248.6
				C984.7,592.9,836.3,427.9,640.3,329c-180.5-90.8-439.2-143.6-623.7-19.6L1.3,286.7c194.3-130.6,463.8-76.4,651.2,17.9
				c200.7,101.3,351.2,268.5,488.2,431.2c82.4,97.7,195.1,231.5,344.9,238.9c150,7.2,265.9-115.4,308.9-168.4
				c39.9-49.3,73.6-103.7,106.2-156.3c6.7-10.8,13.3-21.5,20-32.2c23.3-37.3,48.9-76.9,78-114.4c53.3-68.7,164.9-183.6,315.4-183.6
				c0.8,0,1.6,0,2.3,0c93.8,0.8,183.5,46.1,270.4,89.9c110.6,55.8,214.8,108.4,318.3,67.8c47.3-18.4,84.2-53.2,123.3-90
				c19.2-18.1,39-36.8,60.2-53.4c85.2-66.9,160.2-75.8,211.1-25.3l-19.2,19.4c-51.1-50.8-123.4-13.1-175,27.4
				c-20.3,15.9-39.6,34.1-58.4,51.8c-39.2,37-79.8,75.2-132.1,95.6c-114.9,45.1-229.4-12.7-340.2-68.6
				c-84.4-42.6-171.3-86.4-258.6-87.2c-0.7,0-1.4,0-2.1,0c-138.9,0-243.6,108.3-293.8,173c-28.4,36.5-53.5,75.5-76.4,112.1
				c-6.7,10.7-13.3,21.4-20,32.1c-33,53.3-67.2,108.5-108.1,159.1C1723.2,937.7,1608.2,1002.2,1497.9,1002.2z"/>
		</g>
		<g>
			
				<linearGradient id="SVGID_13_" gradientUnits="userSpaceOnUse" x1="3915.5703" y1="735.8016" x2="7211.1699" y2="735.8016" gradientTransform="matrix(-1 0 0 -1 7213.77 1336.2589)">
				<stop  offset="0" style="stop-color:#0ECEF3"/>
				<stop  offset="0.4034" style="stop-color:#28ACE7"/>
				<stop  offset="0.7743" style="stop-color:#3B93DE"/>
				<stop  offset="1" style="stop-color:#428ADB"/>
			</linearGradient>
			<path class="st13" d="M1496,945c-3.3,0-6.5-0.1-9.8-0.2c-155.2-5-271.7-121.1-365.3-214.5C981.4,591.1,829,448,633.9,362.1
				C455.2,284,198.8,238.2,15.3,343.9l-12.7-22c162.8-93.7,402.6-87.4,641.4,17c199.2,87.7,353.6,232.6,494.7,373.5
				c90.4,90.2,203,202.5,348.2,207.1c140.5,4.6,254.9-94.4,310.7-153.7c39.6-42.1,74.1-87.8,107.5-131.9c8.7-11.5,17.3-23,26.1-34.3
				c24.5-32.1,51.4-66.3,81.9-98.8c67.4-72.1,176.9-156.5,314.7-149.4c89.8,4.8,176.5,48.5,260.3,90.8l3.9,1.9
				c103,52,209.6,105.7,314,70.5c48.5-16.4,87.1-48.5,128-82.5c18.4-15.3,37.4-31.1,57.4-45.4c84.9-60.7,156.4-70.5,206.8-28.2
				l-16.3,19.4c-51.2-43-123.9-7.8-175.8,29.4c-19.3,13.8-37.9,29.3-55.9,44.3c-40.9,34-83.1,69.2-136.1,87.1
				c-114.5,38.6-230.9-20.1-333.5-71.8l-3.9-1.9c-81.5-41.1-165.7-83.6-250.2-88.1c-128.1-6.6-231.1,73.3-294.9,141.5
				c-29.8,31.7-56.2,65.3-80.3,96.8c-8.7,11.3-17.3,22.8-26,34.2c-33.8,44.7-68.7,91-109.3,134.1C1758.7,844.2,1641.8,945,1496,945z
				"/>
		</g>
		<g>
			
				<linearGradient id="SVGID_14_" gradientUnits="userSpaceOnUse" x1="3917.1697" y1="740.5627" x2="7209.8701" y2="740.5627" gradientTransform="matrix(-1 0 0 -1 7213.77 1336.2589)">
				<stop  offset="0" style="stop-color:#0EBFEE"/>
				<stop  offset="0.4339" style="stop-color:#35A5E5"/>
				<stop  offset="0.7858" style="stop-color:#4E94DF"/>
				<stop  offset="1" style="stop-color:#578EDD"/>
			</linearGradient>
			<path class="st14" d="M1492.6,887.8c-1.5,0-3,0-4.6,0c-148.6-2.1-263.3-96.1-364.4-179.1l-1.7-1.4
				c-143.5-118-299.8-239.2-494.4-312.1C398.2,310.3,168.9,304,14,378.3l-10.1-21c160.5-77,396.6-71,631.7,16.1
				c198,74.2,356.1,196.7,501.1,315.9l1.7,1.4c98.2,80.5,209.5,171.8,349.9,173.8c1.4,0,2.7,0,4.1,0c134.2,0,250.6-86.8,308.5-138.9
				c38.3-34.4,72.5-71.1,105.6-106.5c11.8-12.6,23.5-25.2,35.4-37.6c24.3-25.6,53.5-55.5,85.8-83.1
				c69.3-59.8,179.6-128.3,311.5-115.3c85.7,8.6,169,50.6,249.5,91.3l8,4.1c95.9,48.4,204.6,103.2,310.1,73.4
				c50.2-14.2,90.9-43.8,134-75.2c17.1-12.5,34.9-25.4,53.3-37.3c84.7-54.7,152.8-65.1,202.5-31l-13.2,19.2
				c-41.2-28.3-100.6-17.7-176.6,31.4c-17.9,11.6-35.3,24.3-52.2,36.5c-42.9,31.2-87.2,63.5-141.4,78.8
				c-114.1,32.2-227.2-24.8-326.9-75l-8-4.1c-78.6-39.7-160-80.7-241.4-88.9c-123.6-12.2-228.1,53-294,109.8
				c-31.6,27-60.3,56.4-84.1,81.5c-11.8,12.3-23.5,24.8-35.2,37.4c-33.5,35.8-68.1,72.9-107.1,107.9
				C1742.9,809.2,1627.3,887.8,1492.6,887.8z"/>
		</g>
		<g>
			
				<linearGradient id="SVGID_15_" gradientUnits="userSpaceOnUse" x1="3918.77" y1="745.966" x2="7208.6699" y2="745.966" gradientTransform="matrix(-1 0 0 -1 7213.77 1336.2589)">
				<stop  offset="0" style="stop-color:#0DB0E8"/>
				<stop  offset="0.1692" style="stop-color:#22A9E6"/>
				<stop  offset="0.5342" style="stop-color:#4A9DE2"/>
				<stop  offset="0.8238" style="stop-color:#6395E0"/>
				<stop  offset="1" style="stop-color:#6C92DF"/>
			</linearGradient>
			<path class="st15" d="M1488.3,830.7c-141.2,0-255.5-74.8-356.4-140.9l-8.9-5.8c-148-97-308.5-196.6-502-255.8
				C512.4,395,235.7,326.9,12.7,412.6l-7.6-19.9c229.1-88,511.4-18.7,622.1,15.2c196.1,60,358.2,160.5,507.4,258.3l8.9,5.8
				c98.4,64.4,209.9,137.4,344.8,137.4c0.5,0,1,0,1.5,0c99.7-0.5,205.5-42.2,314.4-123.9c35.8-26.8,68.8-54.7,100.6-81.7
				c15.7-13.3,31.9-27.1,47.9-40.2c23.7-19.4,55.2-44.6,89.7-67.5c103.6-68.9,207.3-96.3,308.2-81.4
				c81.4,12.2,161.1,52.4,238.2,91.3l12.9,6.5c109.1,55,207.4,98.7,306,76.4c52.5-11.9,95.9-39.2,141.9-68.1
				c15.3-9.6,31.1-19.5,47.3-28.9c84.5-48.8,149.3-59.9,198.1-33.8l-10,18.8c-41.8-22.3-99.8-11.4-177.4,33.5
				c-15.9,9.2-31.5,19-46.7,28.5c-45.5,28.6-92.5,58.1-148.6,70.8c-105.5,23.8-207.5-21.3-320.3-78.1l-13-6.5
				c-75.6-38.2-153.7-77.6-231.7-89.3c-95.4-14-194.1,12.2-293.2,78.1c-33.7,22.4-64.8,47.2-88,66.2c-15.9,13-31.3,26.1-47.6,39.9
				c-32.1,27.2-65.3,55.4-101.6,82.5c-112.6,84.5-222.6,127.6-327,128.2C1489.3,830.7,1488.8,830.7,1488.3,830.7z"/>
		</g>
		<g>
			
				<linearGradient id="SVGID_16_" gradientUnits="userSpaceOnUse" x1="3920.27" y1="751.0677" x2="7207.5698" y2="751.0677" gradientTransform="matrix(-1 0 0 -1 7213.77 1336.2589)">
				<stop  offset="0" style="stop-color:#0DA1E2"/>
				<stop  offset="0.2835" style="stop-color:#379DE1"/>
				<stop  offset="0.5981" style="stop-color:#5F99E1"/>
				<stop  offset="0.848" style="stop-color:#7897E0"/>
				<stop  offset="1" style="stop-color:#8196E0"/>
			</linearGradient>
			<path class="st16" d="M1481.1,773.7c-130.6,0-241.6-55.5-340-104.6l-17.2-8.6c-151.1-75.4-314.9-153-509.5-199.4
				c-133.5-31.8-389.4-76-602.8-14.3l-5.4-18.5c217.7-62.9,477.3-18.1,612.7,14.2c196.6,46.9,361.5,125,513.6,200.9l17.2,8.6
				c103.8,51.8,211,105.4,341.5,102.4c96.3-2.4,199.7-38,316.1-108.8c29.6-18,57.7-36.3,84.9-54c24.4-16,47.5-31,71.3-45.6
				c35.3-21.6,65-38.1,93.6-51.9c107-51.6,206.7-67.1,304.7-47.7c76.8,15.5,152.5,53.8,225.7,90.8l19.1,9.6
				c102.2,51.5,202.1,96.3,301.9,79.4c55.9-9.4,103-34.6,152.8-61.3c12.6-6.8,25.4-13.6,38.4-20.2c53.3-27.1,131.4-60.4,193.8-36.5
				l-6.9,18c-55.3-21.1-128.2,10.2-178.2,35.7c-12.9,6.6-25.5,13.3-38,20c-51.3,27.4-99.8,53.3-158.7,63.3
				c-105.5,17.9-208.7-28.2-313.8-81.1l-19.1-9.7c-72.1-36.4-146.6-74.1-220.7-89.1c-93.7-18.6-189.4-3.5-292.6,46.1
				c-28,13.5-57.2,29.7-91.9,50.9c-23.5,14.4-46.5,29.4-70.8,45.3c-27.3,17.8-55.5,36.2-85.4,54.3
				c-119.3,72.6-225.9,109.2-325.7,111.6C1488.1,773.7,1484.6,773.7,1481.1,773.7z"/>
		</g>
		<g>
			
				<linearGradient id="SVGID_17_" gradientUnits="userSpaceOnUse" x1="3921.5703" y1="756.0233" x2="7206.4702" y2="756.0233" gradientTransform="matrix(-1 0 0 -1 7213.77 1336.2589)">
				<stop  offset="0" style="stop-color:#0C93DC"/>
				<stop  offset="4.442269e-02" style="stop-color:#1493DC"/>
				<stop  offset="0.368" style="stop-color:#4C96DF"/>
				<stop  offset="0.6466" style="stop-color:#7498E1"/>
				<stop  offset="0.8664" style="stop-color:#8D99E2"/>
				<stop  offset="1" style="stop-color:#9699E2"/>
			</linearGradient>
			<path class="st17" d="M1468.9,717.1c-117.5,0-218.7-35.8-316.8-70.5c-9.1-3.2-18.1-6.4-27.1-9.6
				c-181.4-63.7-338.6-112.4-517.2-142.9c-161.7-27.6-396.5-52.3-597.2-13.2l-3.3-17c203.3-39.6,440.4-14.7,603.5,13.1
				c179.7,30.7,337.8,79.6,519.9,143.6c9,3.1,18,6.3,27.2,9.6c103.3,36.6,210.2,74.3,334.9,69c118.5-5.3,232.1-52.8,317.7-93.6
				c18.5-8.8,36.5-17.5,54.2-26.1c37.7-18.3,73.3-35.6,109.6-51.1c35.1-14.9,67-26.8,97.5-36.3c108.2-33.5,206.8-38.1,301.3-14.2
				c71.7,18.4,142.9,54.5,211.7,89.4c8.9,4.5,17.8,9.1,26.8,13.5c95.1,47.9,196.4,93.7,297.7,82.5c61-6.7,113.4-30.2,168.9-55.1
				c8-3.6,16.1-7.2,24.3-10.8c61.1-26.9,131.3-52.5,189.7-39l-3.9,16.9c-53.4-12.4-120.4,12.3-178.8,38c-8.1,3.6-16.2,7.2-24.2,10.8
				c-56.8,25.4-110.4,49.5-174.1,56.5c-105.9,11.7-209.9-35.2-307.4-84.3c-8.9-4.5-17.9-9-26.8-13.6c-68-34.5-138.3-70.2-208.1-88.1
				c-91.3-23.1-186.8-18.6-291.9,13.9c-30,9.3-61.3,20.9-95.8,35.6c-35.8,15.3-71.3,32.5-108.8,50.7c-17.7,8.6-35.7,17.4-54.3,26.2
				c-87.1,41.5-202.7,89.8-324.4,95.2C1485.2,716.9,1477,717.1,1468.9,717.1z"/>
		</g>
		<g>
			
				<linearGradient id="SVGID_18_" gradientUnits="userSpaceOnUse" x1="3923.0703" y1="736.7577" x2="7205.5698" y2="736.7577" gradientTransform="matrix(-1 0 0 -1 7213.77 1336.2589)">
				<stop  offset="0" style="stop-color:#0C84D6"/>
				<stop  offset="0.1396" style="stop-color:#2989D8"/>
				<stop  offset="0.4308" style="stop-color:#6191DD"/>
				<stop  offset="0.6817" style="stop-color:#8998E0"/>
				<stop  offset="0.8797" style="stop-color:#A29CE2"/>
				<stop  offset="1" style="stop-color:#AB9DE3"/>
			</linearGradient>
			<path class="st18" d="M2893.7,716.6c-101.1,0-199.4-45-284.3-87.7c-12.4-6.2-24.8-12.5-37.1-18.8
				c-63.1-32.2-128.3-65.5-192.8-85.7c-90.1-28-185.3-34.1-291.1-18.5c-32.5,4.8-65.1,11.4-99.8,20.3
				c-55.6,14.3-111.2,33.7-170,54.3c-106.6,37.5-211.5,71.8-323.3,79c-120.3,7.6-226.6-15.4-329.4-37.7c-13.5-2.9-26.8-5.8-40.1-8.6
				C979,582,801.8,547.4,601.2,527c-234.5-23.9-433.5-28-591.5-12.1l-1.5-15.2c159.1-16,359.1-11.9,594.5,12.1
				c201.4,20.5,379,55.2,526.2,86.5c13.3,2.8,26.7,5.7,40.2,8.6c101.8,22,207.1,44.9,325.2,37.4c109.8-7.1,213.7-41,319.2-78.2
				c59.2-20.7,115.1-40.2,171.3-54.6c35.2-9,68.3-15.8,101.4-20.6c108.1-15.9,205.6-9.7,297.9,19.1c65.8,20.7,131.6,54.2,195.2,86.7
				c12.3,6.3,24.7,12.6,37,18.8c87.8,44.2,190.1,90.9,293.4,85.6c69.3-3.5,130.2-26.2,194.6-50.2c63.6-23.7,129.9-46.2,186.4-41.6
				l-1.3,15.3c-53.3-4.4-117.7,17.6-179.2,40.5c-66.1,24.6-128.1,47.7-199.8,51.3C2904.9,716.5,2899.3,716.6,2893.7,716.6z"/>
		</g>
		<g>
			
				<linearGradient id="SVGID_19_" gradientUnits="userSpaceOnUse" x1="3923.3701" y1="715.6874" x2="7204.8701" y2="715.6874" gradientTransform="matrix(-1 0 0 -1 7213.77 1336.2589)">
				<stop  offset="0" style="stop-color:#0B75D0"/>
				<stop  offset="0.2183" style="stop-color:#3E81D6"/>
				<stop  offset="0.4828" style="stop-color:#768FDC"/>
				<stop  offset="0.7108" style="stop-color:#9E99E1"/>
				<stop  offset="0.8906" style="stop-color:#B79FE4"/>
				<stop  offset="1" style="stop-color:#C0A1E5"/>
			</linearGradient>
			<path class="st19" d="M2915,751.7c-1.6,0-3.3,0-4.9,0c-103.9-1.1-207.3-46.2-294.9-90.2c-17.3-8.7-34.5-17.6-51.7-26.4
				c-56.7-29.2-115.3-59.4-173.1-81.1c-90.8-33.8-185.7-50.6-290.2-51.2c-34.8-0.2-68.8,1.4-103.8,5
				c-50.9,5.2-103.8,14.7-177.1,31.7c-16.1,3.8-32.5,7.7-49.2,11.8c-83.4,20.1-177.8,43-273.2,51.2c-110.5,9.3-212.4,0.5-310.9-8.1
				c-20.1-1.8-40-3.5-59.8-5.1c-170.7-13.7-344.8-23.3-532-29.4C396.6,553.4,189,547.6,9,548.8l-0.1-13.3
				c180.2-1.2,388.1,4.5,585.8,11c187.5,6.1,361.7,15.7,532.6,29.4c19.8,1.6,39.7,3.3,59.9,5.1c98,8.5,199.2,17.4,308.6,8.1
				c94.4-8.1,188.3-30.8,271.2-50.8c16.7-4,33.2-8,49.3-11.8c73.8-17.2,127.3-26.8,178.7-32c35.5-3.6,69.9-5.3,105.2-5.1
				c106.1,0.7,202.5,17.7,294.8,52.1c58.6,22,117.5,52.3,174.5,81.7c17.2,8.8,34.4,17.7,51.6,26.4c86.1,43.3,187.9,87.7,289,88.8
				c66.4,0.7,127-13.4,197.2-34.8l16.9-5.2c56.2-17.2,114.3-35,165.3-38.5l0.9,13.3c-49.5,3.3-106.8,20.9-162.3,37.9l-17,5.2
				C3041.6,737.5,2981.3,751.7,2915,751.7z"/>
		</g>
		<g>
			
				<linearGradient id="SVGID_20_" gradientUnits="userSpaceOnUse" x1="3922.4705" y1="703.6319" x2="7205.4702" y2="703.6319" gradientTransform="matrix(-1 0 0 -1 7213.77 1336.2589)">
				<stop  offset="0" style="stop-color:#0B66CB"/>
				<stop  offset="2.265751e-03" style="stop-color:#0C66CB"/>
				<stop  offset="0.2765" style="stop-color:#527CD5"/>
				<stop  offset="0.523" style="stop-color:#8B8EDD"/>
				<stop  offset="0.7333" style="stop-color:#B39AE2"/>
				<stop  offset="0.8992" style="stop-color:#CCA2E6"/>
				<stop  offset="1" style="stop-color:#D5A5E7"/>
			</linearGradient>
			<path class="st20" d="M2949.9,788.5c-13.5,0-26.9-0.5-40.2-1.5c-107.2-7.8-210.6-53.9-288.8-93.2c-24.8-12.5-49.9-25.6-74.1-38.3
				c-47.7-25-97-50.8-145.5-72.1c-95.3-41.7-189.8-69.3-289-84.1c-36.8-5.6-72.1-9-107.8-10.4c-55.8-2.3-114.3,0.7-184.2,9.3
				c-44.5,5.5-89.9,12.9-138,20.6c-59.6,9.6-121.3,19.6-183.8,26.3c-93.8,10-184,13-271.2,16c-33.2,1.1-67.5,2.3-100.9,3.8
				c-74.5,3.3-147.8,7.5-225.3,11.9c-101.7,5.8-206.8,11.7-314,15.6c-208.6,8.2-408.7,4.8-578.8-9.9l1-11.3
				c169.6,14.7,369.2,18,577.4,9.8c107-3.9,212.1-9.8,313.8-15.6c77.6-4.4,150.9-8.6,225.4-11.9c33.4-1.5,67.8-2.7,101-3.8
				c87-2.9,176.9-5.9,270.4-15.9c62.1-6.7,123.7-16.6,183.2-26.3c48.2-7.8,93.7-15.1,138.4-20.7c70.6-8.7,129.7-11.6,186.1-9.4
				c36.1,1.4,71.8,4.8,109,10.5c100.1,15,195.6,42.8,291.9,84.9c48.9,21.5,98.4,47.4,146.2,72.4c24.2,12.7,49.2,25.7,74,38.2
				c77.2,38.8,179.3,84.3,284.5,92c61.7,4.5,125-1.6,199.3-19.2c27.4-6.5,55.4-14.1,82.5-21.4c33.9-9.2,65.9-17.8,96.5-24.4
				l2.4,11.1c-30.3,6.5-62.2,15.2-96,24.3c-27.2,7.3-55.2,14.9-82.9,21.5C3052.9,781.7,3000.3,788.5,2949.9,788.5z"/>
		</g>
		<g>
			
				<linearGradient id="SVGID_21_" gradientUnits="userSpaceOnUse" x1="3922.0708" y1="698.2924" x2="7205.6704" y2="698.2924" gradientTransform="matrix(-1 0 0 -1 7213.77 1336.2589)">
				<stop  offset="0" style="stop-color:#0A57C5"/>
				<stop  offset="7.564056e-02" style="stop-color:#215FC9"/>
				<stop  offset="0.3296" style="stop-color:#6779D4"/>
				<stop  offset="0.558" style="stop-color:#A08EDC"/>
				<stop  offset="0.7529" style="stop-color:#C89DE3"/>
				<stop  offset="0.9066" style="stop-color:#E1A6E7"/>
				<stop  offset="1" style="stop-color:#EAA9E8"/>
			</linearGradient>
			<path class="st21" d="M2999.5,828.7c-30,0-59.9-2.1-90-6.3c-84.2-11.4-176.7-42.8-282.8-96.1c-38.2-19.2-76.5-39.9-113.6-59.9
				c-33-17.8-67.2-36.3-100.7-53.4c-104.8-53.2-198.9-91.5-287.6-117.1c-38.6-11.2-75.2-19.6-111.8-25.8
				c-60-10.2-122.7-14.5-191.5-13.2c-97.9,1.9-197.8,15-303.5,28.8l-17.8,2.3c-123.3,16-250.8,32.5-373.7,52.6
				c-46.3,7.6-93.6,15.7-139.3,23.5c-132.5,22.7-269.6,46.1-407.1,60.9c-218.3,23.9-405.4,21.1-572-8.8l1.6-9.2
				c165.7,29.7,351.9,32.5,569.3,8.7c137.2-14.8,274.1-38.2,406.5-60.9c45.7-7.8,93-15.9,139.4-23.5c123-20.1,250.6-36.7,374-52.7
				l17.8-2.3c106-13.8,206.1-26.9,304.6-28.9c69.4-1.3,132.7,3,193.3,13.3c36.9,6.2,73.8,14.7,112.8,26
				c89.2,25.7,183.8,64.2,289.2,117.7c33.7,17.1,67.9,35.6,100.9,53.5c37,20,75.2,40.6,113.3,59.8c105.1,52.8,196.7,83.9,279.9,95.2
				c66.8,9.3,132.7,8.1,201.4-3.5c54.9-9.3,114.3-25.5,176.4-48l3.2,8.8c-62.6,22.8-122.5,39.1-178,48.5
				C3075,825.4,3037.1,828.7,2999.5,828.7z"/>
		</g>
		<g>
			
				<linearGradient id="SVGID_22_" gradientUnits="userSpaceOnUse" x1="3921.97" y1="696.8622" x2="7205.77" y2="696.8622" gradientTransform="matrix(-1 0 0 -1 7213.77 1336.2589)">
				<stop  offset="0" style="stop-color:#0A48BF"/>
				<stop  offset="0.1347" style="stop-color:#355AC7"/>
				<stop  offset="0.3723" style="stop-color:#7C77D3"/>
				<stop  offset="0.5862" style="stop-color:#B48EDD"/>
				<stop  offset="0.7687" style="stop-color:#DD9FE4"/>
				<stop  offset="0.9125" style="stop-color:#F6A9E8"/>
				<stop  offset="1" style="stop-color:#FFADEA"/>
			</linearGradient>
			<path class="st22" d="M3054,873.5c-152.8,0-304.4-56-421.5-114.7c-68.7-34.5-136.6-74-202.3-112.2
				c-129.4-75.3-263.2-153.2-408.3-195.1c-330-95.2-675.9,2.7-1010.5,97.4C679.9,642.7,337.1,739.7,8,650.3l1.9-7.1
				c327.1,88.8,668.9-7.9,999.5-101.4c335.6-95,682.6-193.1,1014.6-97.4c145.9,42.1,280.2,120.2,410,195.8
				c65.6,38.2,133.4,77.6,201.9,112c177.3,88.9,434.4,171.6,652.6,60.2l3.3,6.5C3215.5,857.9,3134.6,873.5,3054,873.5z"/>
		</g>
	</g>
	<g>
		<g>
			
				<linearGradient id="SVGID_23_" gradientUnits="userSpaceOnUse" x1="3912.6636" y1="669.5942" x2="7213.7822" y2="669.5942" gradientTransform="matrix(-1 0 0 -1 7213.77 1336.2589)">
				<stop  offset="0" style="stop-color:#0A48BF"/>
				<stop  offset="0.1347" style="stop-color:#355AC7"/>
				<stop  offset="0.3723" style="stop-color:#7C77D3"/>
				<stop  offset="0.5862" style="stop-color:#B48EDD"/>
				<stop  offset="0.7687" style="stop-color:#DD9FE4"/>
				<stop  offset="0.9125" style="stop-color:#F6A9E8"/>
				<stop  offset="1" style="stop-color:#FFADEA"/>
			</linearGradient>
			<path class="st23" d="M1215.1,1333.3c-91.3,0-178.3-21-253.3-63.6c-134.6-76.4-222.4-211.7-297.1-346.5c-11-19.9-22-40-32.9-60.1
				c-62-114.2-126.2-232.2-219.3-322.9C280.7,411.9,130.3,364,10.3,411.9c-1.9,0.7-4-0.2-4.8-2c-0.8-1.9,0.2-4,2-4.8
				c122.8-49.1,276.1-0.5,410,129.8c93.9,91.5,158.4,210,220.6,324.7c10.9,20.1,21.8,40.1,32.8,60
				c74.3,133.8,161.3,268.1,294.4,343.6c168,95.4,397.5,81.1,598.9-37.3c189.4-111.3,329.5-289.3,446-447.4
				c18-24.4,35.8-49,53.7-73.6c106.4-146.3,216.4-297.6,354.4-417c250.2-216.5,559.9-316.2,872.2-281c2,0.2,3.5,2,3.2,4.1
				c-0.2,2-2,3.4-4.1,3.2c-310.2-35.1-617.9,64.1-866.5,279.2c-137.3,118.9-247.1,269.8-353.2,415.8c-17.9,24.6-35.8,49.2-53.7,73.6
				c-116.9,158.7-257.5,337.3-448.1,449.4C1454.1,1299.3,1331.1,1333.3,1215.1,1333.3z"/>
		</g>
		<g>
			
				<linearGradient id="SVGID_24_" gradientUnits="userSpaceOnUse" x1="3912.6641" y1="679.0184" x2="7213.7822" y2="679.0184" gradientTransform="matrix(-1 0 0 -1 7213.77 1336.2589)">
				<stop  offset="0" style="stop-color:#0A48BF"/>
				<stop  offset="0.1347" style="stop-color:#355AC7"/>
				<stop  offset="0.3723" style="stop-color:#7C77D3"/>
				<stop  offset="0.5862" style="stop-color:#B48EDD"/>
				<stop  offset="0.7687" style="stop-color:#DD9FE4"/>
				<stop  offset="0.9125" style="stop-color:#F6A9E8"/>
				<stop  offset="1" style="stop-color:#FFADEA"/>
			</linearGradient>
			<path class="st24" d="M1253.9,1292.8c-59,0-116.9-8.6-171.6-26c-39.4-12.5-76.9-29.6-111.5-50.8
				c-133.1-81.6-222.6-219.8-296-342.9c-8.1-13.6-16.2-27.3-24.3-41c-19.2-32.5-39.1-66-59.3-98.4c-42.6-68.3-101.5-155.6-179.8-225
				c-64.4-57-232.4-181.9-401-110c-1.9,0.8-4-0.1-4.8-1.9s0.1-4,1.9-4.8c172.4-73.5,343.3,53.3,408.7,111.2
				c78.9,70,138.3,157.8,181.1,226.6c20.3,32.5,40.2,66.1,59.4,98.6c8.1,13.7,16.2,27.4,24.3,41c73,122.4,161.9,259.7,293.5,340.4
				c34.1,20.9,71.1,37.7,109.9,50.1c148.2,47.2,320.3,28.8,472.4-50.6c99.3-51.9,193.4-130.1,287.7-239.2
				c57.3-66.3,110-138,158.3-205.7c8.7-12.1,17.3-24.3,26-36.4c15.1-21.1,30.1-42.3,45.3-63.4c67.6-93.7,149.3-201.2,243-288.1
				c33.3-30.9,68.1-59.5,103.4-85.1c113.8-82.5,244.8-145.5,424.7-204.2c90.4-29.5,161.8-47.1,231.5-57.1
				c79.7-11.5,149.7-11.3,213.9,0.6c2,0.4,3.3,2.3,2.9,4.3c-0.4,2-2.3,3.3-4.3,2.9c-63.4-11.8-132.6-11.9-211.5-0.5
				c-69.2,10-140.3,27.5-230.2,56.9c-179,58.2-309.3,120.8-422.5,202.9c-35.1,25.4-69.7,53.8-102.7,84.5
				c-93.3,86.5-174.7,193.7-242,287.1c-15.2,21.1-30.3,42.2-45.3,63.4c-8.7,12.2-17.3,24.3-26,36.4
				c-48.5,67.8-101.3,139.7-158.8,206.2c-94.9,109.8-189.7,188.6-289.9,240.9C1462.6,1266.7,1356.6,1292.8,1253.9,1292.8z"/>
		</g>
		<g>
			
				<linearGradient id="SVGID_25_" gradientUnits="userSpaceOnUse" x1="3912.6633" y1="687.2447" x2="7213.7803" y2="687.2447" gradientTransform="matrix(-1 0 0 -1 7213.77 1336.2589)">
				<stop  offset="0" style="stop-color:#0A48BF"/>
				<stop  offset="0.1347" style="stop-color:#355AC7"/>
				<stop  offset="0.3723" style="stop-color:#7C77D3"/>
				<stop  offset="0.5862" style="stop-color:#B48EDD"/>
				<stop  offset="0.7687" style="stop-color:#DD9FE4"/>
				<stop  offset="0.9125" style="stop-color:#F6A9E8"/>
				<stop  offset="1" style="stop-color:#FFADEA"/>
			</linearGradient>
			<path class="st25" d="M1295.4,1255.3c-71.5,0-142.3-12.7-208.6-38.1c-37.6-14.4-73.7-32.9-107.1-54.9
				c-123.8-82.2-213.5-212.7-294.8-339.5l-13.2-20.5c-24.1-37.5-49-76.4-74.6-113.5C531.8,593.7,474.2,528.3,410.2,477
				c-65.4-52.4-235.4-166.3-399.8-91.6c-1.9,0.8-4,0-4.8-1.8s0-4,1.8-4.8c168.1-76.4,340.9,39.3,407.4,92.6
				c64.6,51.8,122.7,117.6,188.4,213.4c25.7,37.2,50.6,76.1,74.7,113.7l13.2,20.5c80.8,126.1,170,255.9,292.7,337.2
				c33,21.8,68.5,40,105.7,54.2c145.4,55.9,313.1,49.3,460.1-18c100.3-45.9,198.1-124.7,290.6-234
				c55.9-66.1,105.5-136.2,155.5-208.3l9.7-14c19.8-28.5,40.2-58,60.8-86.8c92.4-129.5,169.5-216,249.8-280.7
				c34.1-27.5,69.1-51.7,107.1-74c111.9-66.2,232.2-106,359.6-148.1c22.8-7.5,45.8-15.1,69-23l22.1-7.5
				c69.4-23.5,134.9-45.7,204.6-60.1c82.8-17,152.3-17.6,212.6-1.9c2,0.5,3.1,2.5,2.6,4.5s-2.5,3.1-4.5,2.6
				c-59.2-15.5-127.6-14.8-209.3,1.9c-69.2,14.2-134.6,36.4-203.8,59.8l-22.1,7.5c-23.2,7.8-46.2,15.4-69,23
				c-127,42-246.9,81.6-358.2,147.4c-37.6,22.2-72.4,46.2-106.2,73.4c-79.8,64.2-156.4,150.3-248.5,279.2
				c-20.5,28.7-41,58.2-60.7,86.7l-9.7,14c-50.1,72.2-99.8,142.6-155.9,208.9c-93.3,110.2-191.9,189.5-293.2,235.9
				C1470.8,1236.4,1382.7,1255.3,1295.4,1255.3z"/>
		</g>
		<g>
			
				<linearGradient id="SVGID_26_" gradientUnits="userSpaceOnUse" x1="3912.6646" y1="693.4218" x2="7213.7817" y2="693.4218" gradientTransform="matrix(-1 0 0 -1 7213.77 1336.2589)">
				<stop  offset="0" style="stop-color:#0A48BF"/>
				<stop  offset="0.1347" style="stop-color:#355AC7"/>
				<stop  offset="0.3723" style="stop-color:#7C77D3"/>
				<stop  offset="0.5862" style="stop-color:#B48EDD"/>
				<stop  offset="0.7687" style="stop-color:#DD9FE4"/>
				<stop  offset="0.9125" style="stop-color:#F6A9E8"/>
				<stop  offset="1" style="stop-color:#FFADEA"/>
			</linearGradient>
			<path class="st26" d="M1337.1,1221.8c-82.9,0-166.4-18.2-245.7-54.3c-35.9-16.3-70.5-36.1-102.6-59
				C866,1020.7,775.2,888.9,695,772.6c-29.3-42.4-59.6-86.2-91.8-128.5c-66.4-87.8-128-150.9-194.1-198.7
				C268.8,344.3,123.5,317.6,10.5,372.2c-1.8,0.9-4,0.1-4.9-1.7c-0.9-1.8-0.1-4,1.7-4.9c115.5-55.8,263.5-28.8,406.1,73.9
				c66.7,48.2,128.8,111.8,195.6,200.2c32.3,42.4,62.6,86.3,92,128.8c79.8,115.8,170.3,247,291.9,334
				c31.8,22.6,65.9,42.2,101.4,58.3c145.1,66.2,304.1,71.3,447.8,14.6c102.4-40.5,201.2-117.5,293.5-228.8
				c56.2-67.8,105.3-140.6,152.7-210.9c21.3-31.6,45.4-67.4,69.7-101.7c90.3-127.7,171.9-214.5,256.7-273.2
				c34.6-24,70.9-44.6,110.8-63c80.9-37.6,164.3-60.3,252.7-84.3c58.4-15.9,118.7-32.3,179.8-53.7c26.1-9.1,51.8-18.9,76.8-28.3
				c49.2-18.7,95.7-36.3,145.2-49.6c84.3-22.6,153.3-24,211.3-4.3c1.9,0.7,2.9,2.7,2.3,4.6c-0.7,1.9-2.7,3-4.6,2.3
				c-56.5-19.2-124.2-17.8-207,4.4c-49.2,13.2-95.5,30.8-144.5,49.4c-25,9.5-50.8,19.3-76.9,28.4c-61.3,21.4-121.8,37.9-180.3,53.8
				c-88,24-171.2,46.6-251.5,83.9c-39.5,18.2-75.4,38.6-109.7,62.4C2235,425,2154,511.2,2064.2,638.2c-24.2,34.2-48.3,70-69.6,101.5
				c-47.5,70.5-96.6,143.4-153.1,211.5c-93.1,112.3-192.9,190-296.5,230.9C1478,1208.6,1407.7,1221.8,1337.1,1221.8z"/>
		</g>
		<g>
			
				<linearGradient id="SVGID_27_" gradientUnits="userSpaceOnUse" x1="3912.665" y1="697.7944" x2="7213.7813" y2="697.7944" gradientTransform="matrix(-1 0 0 -1 7213.77 1336.2589)">
				<stop  offset="0" style="stop-color:#0A48BF"/>
				<stop  offset="0.1347" style="stop-color:#355AC7"/>
				<stop  offset="0.3723" style="stop-color:#7C77D3"/>
				<stop  offset="0.5862" style="stop-color:#B48EDD"/>
				<stop  offset="0.7687" style="stop-color:#DD9FE4"/>
				<stop  offset="0.9125" style="stop-color:#F6A9E8"/>
				<stop  offset="1" style="stop-color:#FFADEA"/>
			</linearGradient>
			<path class="st27" d="M1374.9,1191.9c-92.6,0-186.9-24.8-279-74c-34.2-18.1-67.3-39.4-98.2-63.1
				c-109.2-84.2-194.9-200.2-277.8-312.3l-14.7-19.9c-27.9-37.5-61-81.4-95.8-123c-69-82.6-132.9-141.5-201.3-185.7
				c-83.6-53.8-246.4-132.6-397.5-55c-1.8,0.9-4,0.2-4.9-1.6c-0.9-1.8-0.2-4,1.6-4.9c154.3-79.3,319.9,0.6,404.8,55.3
				c69,44.6,133.5,104,202.9,187c34.9,41.8,68.2,85.8,96.1,123.4l14.7,19.9c82.6,111.8,168,227.3,276.4,310.9
				c30.6,23.5,63.3,44.5,97.2,62.5c145.1,77.5,295.6,93.8,435.5,47.2c103-34.4,205.5-111.7,296.4-223.6
				c52.5-64.6,98.9-135.6,143.8-204.3l6-9.2c21.7-33.1,44.8-68.3,68.8-102.6c88.8-126.8,175-213.7,263.6-265.7
				c34.9-20.6,72.3-37.6,114.4-51.9c65.7-22.4,131.8-34.6,201.8-47.6c76-14,154.7-28.5,234.5-57.4c35.2-12.7,69-27.5,101.8-41.9
				c37.3-16.4,76-33.3,115.5-46.4c85.1-28.3,153.7-30.5,209.9-6.7c1.9,0.8,2.7,2.9,1.9,4.8s-2.9,2.7-4.8,1.9
				c-54.5-23.1-121.5-20.8-204.8,6.9c-39.2,13-75.9,29.1-114.9,46.2c-32.9,14.4-66.8,29.3-102.2,42
				c-80.4,29.1-159.3,43.6-235.7,57.7c-69.7,12.9-135.6,25-200.8,47.3c-41.6,14.2-78.6,31-113.1,51.3
				c-87.6,51.5-173.1,137.7-261.3,263.6c-24,34.2-47.1,69.3-68.7,102.4l-6,9.2c-45,68.8-91.5,140-144.3,204.9
				c-91.8,113-195.5,191.2-299.8,226C1484.3,1183.1,1429.9,1191.9,1374.9,1191.9z"/>
		</g>
		<g>
			
				<linearGradient id="SVGID_28_" gradientUnits="userSpaceOnUse" x1="3912.6643" y1="701.0459" x2="7213.7817" y2="701.0459" gradientTransform="matrix(-1 0 0 -1 7213.77 1336.2589)">
				<stop  offset="0" style="stop-color:#0A48BF"/>
				<stop  offset="0.1347" style="stop-color:#355AC7"/>
				<stop  offset="0.3723" style="stop-color:#7C77D3"/>
				<stop  offset="0.5862" style="stop-color:#B48EDD"/>
				<stop  offset="0.7687" style="stop-color:#DD9FE4"/>
				<stop  offset="0.9125" style="stop-color:#F6A9E8"/>
				<stop  offset="1" style="stop-color:#FFADEA"/>
			</linearGradient>
			<path class="st28" d="M1409.5,1164.7c-101,0-205.9-32.5-309.1-96.5c-32.4-19.9-64-42.6-93.8-67.2c-95-79-174.7-180.4-251.8-278.5
				c-13.3-16.9-26.5-33.7-39.7-50.2c-37.9-47.5-69.7-84.8-99.9-117.6C545.5,479,477.3,422.6,407,382.3
				C322.4,334,158.4,265.1,10.7,345.7c-1.8,1-4,0.3-5-1.5s-0.3-4,1.5-5c150.8-82.3,317.5-12.3,403.5,36.7
				c71,40.7,139.7,97.5,210.1,173.8c30.3,32.9,62.2,70.4,100.2,118c13.2,16.6,26.4,33.4,39.7,50.3
				c76.8,97.8,156.3,198.8,250.7,277.4c29.5,24.4,60.8,46.8,92.9,66.6c143,88.7,289.4,116.3,423.2,79.7
				c132.6-36.2,236-138.8,299.3-218.5c49.6-62.3,93-130.9,135-197.3l12-18.9c21.2-33.5,44.2-69.2,68-103.5
				c87.6-126.2,178.6-213.1,270.5-258.2c35.7-17.6,74.3-31,118.1-40.9c57.2-12.9,113.8-17.8,173.9-23c86.4-7.5,175.8-15.2,266.3-49
				c40.3-15,78.1-34.1,114.6-52.6c31.6-16,64.3-32.6,97.9-46c85.5-34.2,153.7-37.2,208.6-9.1c1.8,0.9,2.5,3.1,1.6,4.9
				s-3.1,2.5-4.9,1.6c-52.9-27-119.1-24-202.5,9.4c-33.3,13.3-65.8,29.8-97.3,45.7c-36.7,18.6-74.7,37.8-115.4,53
				c-91.4,34.1-181.3,41.9-268.2,49.4c-59.8,5.2-116.2,10-172.9,22.9c-43.2,9.8-81.3,23-116.5,40.3
				c-90.8,44.6-180.8,130.6-267.7,255.8c-23.8,34.2-46.6,69.9-67.8,103.3l-12,18.9c-42.1,66.5-85.7,135.3-135.5,197.9
				c-64.1,80.5-168.7,184.2-303.1,221C1490.4,1159.4,1450.3,1164.7,1409.5,1164.7z"/>
		</g>
		<g>
			
				<linearGradient id="SVGID_29_" gradientUnits="userSpaceOnUse" x1="3912.6646" y1="702.5366" x2="7213.7813" y2="702.5366" gradientTransform="matrix(-1 0 0 -1 7213.77 1336.2589)">
				<stop  offset="0" style="stop-color:#0A48BF"/>
				<stop  offset="0.1347" style="stop-color:#355AC7"/>
				<stop  offset="0.3723" style="stop-color:#7C77D3"/>
				<stop  offset="0.5862" style="stop-color:#B48EDD"/>
				<stop  offset="0.7687" style="stop-color:#DD9FE4"/>
				<stop  offset="0.9125" style="stop-color:#F6A9E8"/>
				<stop  offset="1" style="stop-color:#FFADEA"/>
			</linearGradient>
			<path class="st29" d="M1436.5,1140.9c-106.4,0-217.6-41-331.5-122.5c-30.7-21.7-60.7-45.7-89.3-71.3
				c-79.9-71.7-151-157.8-219.9-241c-23-27.9-46.9-56.6-70.4-84.1c-37.5-43.6-71.5-80.3-103.9-112.1
				C549.7,439.5,479.2,387.4,406,350.6c-85.5-42.8-250.5-102-395.2-18.3c-1.8,1-4,0.4-5-1.3c-1-1.8-0.4-4,1.3-5
				c109.4-63.3,252.2-56.9,402.1,18.1c73.9,37.1,145,89.7,217.4,160.6c32.6,32,66.8,68.8,104.4,112.6c23.6,27.5,47.4,56.3,70.4,84.2
				c68.7,83,139.7,168.9,219.1,240.2c28.4,25.4,58.2,49.2,88.7,70.8c143,102.3,281.3,140,411,112.3
				c105.3-22.5,212.6-98.3,302.2-213.3c47.2-60.6,88.2-127.5,127.8-192.1l16.4-26.7c20.5-33.3,42.9-69.1,67.2-104.4
				c87.8-127.7,181.1-212.1,277.4-250.7c36.7-14.8,76.5-24.5,121.8-29.8c52-6,105.5-5.2,157.2-4.5c93.3,1.4,189.7,2.8,286.7-34.5
				c43.4-16.7,83-39.7,121.3-62c27.9-16.2,56.7-33,86.5-47c85.7-40.2,153.5-44,207.2-11.5c1.7,1,2.3,3.3,1.2,5c-1,1.7-3.3,2.3-5,1.2
				c-51.5-31.1-117-27.2-200.3,11.9c-29.5,13.8-58.2,30.5-85.9,46.7c-38.6,22.4-78.4,45.6-122.4,62.5
				c-98.3,37.9-195.5,36.4-289.5,35c-51.5-0.8-104.7-1.6-156.2,4.4c-44.7,5.2-83.9,14.8-119.9,29.3
				c-94.9,38.1-187.1,121.5-274.1,248.1c-24.2,35.2-46.5,70.9-67,104.1l-16.4,26.7C1916.7,788,1875.6,855,1828.1,916
				c-90.7,116.4-199.5,193.1-306.5,216C1493.7,1137.9,1465.3,1140.9,1436.5,1140.9z"/>
		</g>
		<g>
			
				<linearGradient id="SVGID_30_" gradientUnits="userSpaceOnUse" x1="3912.6643" y1="702.7142" x2="7213.7817" y2="702.7142" gradientTransform="matrix(-1 0 0 -1 7213.77 1336.2589)">
				<stop  offset="0" style="stop-color:#0A48BF"/>
				<stop  offset="0.1347" style="stop-color:#355AC7"/>
				<stop  offset="0.3723" style="stop-color:#7C77D3"/>
				<stop  offset="0.5862" style="stop-color:#B48EDD"/>
				<stop  offset="0.7687" style="stop-color:#DD9FE4"/>
				<stop  offset="0.9125" style="stop-color:#F6A9E8"/>
				<stop  offset="1" style="stop-color:#FFADEA"/>
			</linearGradient>
			<path class="st30" d="M1455.6,1119.7c-110.2,0-221.7-48.9-346.1-151c-28.8-23.5-57.4-48.8-84.9-75.3
				c-63.4-61.5-123.1-131-180.7-198.2c-35.3-41.1-71.8-83.7-108.3-123.4c-37.8-40.9-73.2-75.8-108-106.6
				c-72.7-64.3-147.7-113.5-222.7-146.1c-148.9-64.5-288.9-64.4-394.1,0c-1.7,1.1-4,0.5-5-1.2c-1.1-1.7-0.5-4,1.2-5
				c107.3-65.8,249.6-65.9,400.8-0.5c75.8,33,151.4,82.5,224.6,147.4c35,31,70.5,66,108.5,107.2c36.7,39.8,73.2,82.4,108.5,123.6
				c57.6,66.9,117.2,136.3,180.3,197.5c27.3,26.3,55.7,51.6,84.4,74.9c144.7,118.7,271.4,164.8,398.7,144.9
				c144.4-22.5,253.2-140.1,305.1-208.2c45.3-59.4,84.1-124.9,121.7-188.3c6.6-11.1,13.1-22.1,19.7-33.2
				c19-31.8,41.7-69.1,66.4-105.4c60.6-89,159.1-203.4,284.3-243.2c38-12.1,79.1-18.2,125.5-18.6c49.1-0.7,99.2,5.2,147.7,10.8
				c97.9,11.4,199.1,23.2,300.1-16.9c45.4-18,85.7-44.7,124.6-70.6c25.2-16.8,51.3-34.1,78.5-48.8c84.5-45.7,153.8-50.4,205.8-13.9
				c1.7,1.2,2.1,3.4,0.9,5.1c-1.2,1.7-3.4,2.1-5.1,0.9c-49.6-34.7-116.3-29.9-198.1,14.4c-26.8,14.5-52.8,31.7-77.9,48.4
				c-39.3,26.1-79.8,53-126,71.3c-102.7,40.8-204.8,28.9-303.6,17.4c-48.2-5.6-98-11.4-146.7-10.8c-45.7,0.4-86.1,6.4-123.4,18.3
				c-123.3,39.3-220.6,152.5-280.5,240.5c-24.6,36.1-47.2,73.3-66.1,105c-6.6,11-13.1,22.1-19.7,33.2
				c-37.6,63.6-76.6,129.3-122.1,189c-52.6,69-162.9,188.1-309.8,211C1494.5,1118.2,1475.1,1119.7,1455.6,1119.7z"/>
		</g>
		<g>
			
				<linearGradient id="SVGID_31_" gradientUnits="userSpaceOnUse" x1="3912.6648" y1="702.1815" x2="7213.7813" y2="702.1815" gradientTransform="matrix(-1 0 0 -1 7213.77 1336.2589)">
				<stop  offset="0" style="stop-color:#0A48BF"/>
				<stop  offset="0.1347" style="stop-color:#355AC7"/>
				<stop  offset="0.3723" style="stop-color:#7C77D3"/>
				<stop  offset="0.5862" style="stop-color:#B48EDD"/>
				<stop  offset="0.7687" style="stop-color:#DD9FE4"/>
				<stop  offset="0.9125" style="stop-color:#F6A9E8"/>
				<stop  offset="1" style="stop-color:#FFADEA"/>
			</linearGradient>
			<path class="st31" d="M1473.1,1100c-146.3,0-267.8-95.5-359-181c-26.8-25-53.9-51.7-80.5-79.4c-45-47.1-89.2-97.7-131.9-146.6
				c-50.4-57.7-102.5-117.4-156-171.4c-39-39.2-75.6-72.3-112-101.2c-74-59.2-151.4-104-229.9-133
				c-106.1-39.1-260.5-67.6-392.9,18.4c-1.7,1.1-4,0.6-5.1-1.1s-0.6-4,1.1-5.1c135-87.6,291.7-58.8,399.4-19.1
				c79.2,29.3,157.2,74.4,231.9,134.2c36.6,29.1,73.5,62.3,112.7,101.7c53.7,54.2,105.9,113.9,156.3,171.7
				c42.7,48.9,86.8,99.4,131.7,146.4c26.5,27.6,53.4,54.2,80.2,79.1c96.9,90.8,228.3,193.1,386.4,177.4
				c107.2-10.6,219.5-84.6,308-203.1c43.7-58.4,80.6-123,116.3-185.4c7.4-12.9,14.8-25.8,22.2-38.7c18.4-31.8,40.6-69.4,65.5-106.3
				c60.8-90.2,160.7-204.3,291.2-235.6c39.1-9.4,81.4-11.9,129.2-7.5c47.2,4.2,95,14.5,141.2,24.5c101.5,22,206.5,44.7,310.3,2.3
				c46.7-19.1,86.9-49.3,125.8-78.5c23.3-17.5,47.4-35.6,72.6-51.1c84.5-51.9,153.2-57.4,204.4-16.3c1.6,1.3,1.8,3.6,0.6,5.1
				c-1.3,1.6-3.6,1.8-5.1,0.6c-48.5-39-114.5-33.3-196,16.8c-24.9,15.3-48.8,33.3-72,50.7c-39.3,29.5-79.9,60.1-127.5,79.5
				c-105.9,43.3-212,20.3-314.6-1.9c-46-10-93.6-20.3-140.3-24.4c-47.1-4.3-88.5-1.9-126.8,7.3c-128.2,30.7-226.7,143.4-286.8,232.6
				c-24.8,36.7-46.9,74.1-65.3,105.9c-7.4,12.9-14.8,25.7-22.2,38.6c-35.8,62.6-72.9,127.4-116.8,186.1
				c-52.8,70.6-163.6,191.1-313.2,206C1495.1,1099.5,1484,1100,1473.1,1100z"/>
		</g>
		<g>
			
				<linearGradient id="SVGID_32_" gradientUnits="userSpaceOnUse" x1="3912.6643" y1="700.5761" x2="7213.7808" y2="700.5761" gradientTransform="matrix(-1 0 0 -1 7213.77 1336.2589)">
				<stop  offset="0" style="stop-color:#0A48BF"/>
				<stop  offset="0.1347" style="stop-color:#355AC7"/>
				<stop  offset="0.3723" style="stop-color:#7C77D3"/>
				<stop  offset="0.5862" style="stop-color:#B48EDD"/>
				<stop  offset="0.7687" style="stop-color:#DD9FE4"/>
				<stop  offset="0.9125" style="stop-color:#F6A9E8"/>
				<stop  offset="1" style="stop-color:#FFADEA"/>
			</linearGradient>
			<path class="st32" d="M1485.3,1081.9c-147.6,0-268-107-366.7-212.6c-24.2-25.8-49.8-53.9-76-83.4c-23.4-26.5-47.1-53.9-69.9-80.3
				c-69-79.9-140.4-162.6-216.8-234.1c-39.6-36.9-77.5-68.3-116.1-95.7c-75.1-53.8-157-95.3-237-119.9C296,223.1,141.4,203,11,292.6
				c-1.7,1.2-3.9,0.7-5.1-0.9c-1.1-1.7-0.7-3.9,0.9-5.1c132.8-91.2,289.8-70.9,398.1-37.7c80.8,24.8,163.4,66.6,239.1,120.9
				c38.8,27.6,77,59.2,116.8,96.3c76.7,71.8,148.2,154.6,217.4,234.6c22.9,26.5,46.5,53.8,69.9,80.3c26.2,29.5,51.7,57.5,75.9,83.3
				c100.5,107.5,223.5,216.4,374.2,210c108.9-4.7,222.2-76.8,310.9-197.9c42.2-57.7,77.5-121.5,111.6-183.3c8-14.5,16-29,24.1-43.4
				c16.9-30.1,39.5-69.5,64.7-107.2c50.1-74.9,155.4-204.2,298.1-228c40.2-6.7,83.7-5.5,132.9,3.7c46.1,8.5,92.5,23.1,137.4,37.3
				c109.2,34.4,212.3,66.8,318,22.4c47.6-20,87.3-53.6,125.7-86.1c21.8-18.4,44.3-37.5,68-53.9c58-40.1,140.2-75.9,203-18.7
				c1.5,1.4,1.6,3.7,0.2,5.2c-1.4,1.5-3.7,1.6-5.2,0.2c-59.2-53.9-138.1-19.3-193.9,19.3c-23.4,16.2-45.8,35.2-67.4,53.5
				c-38.8,32.9-79,66.8-127.6,87.2c-108.2,45.5-217.4,11.1-323.1-22.2c-44.7-14.1-90.8-28.6-136.5-37c-48.3-9-90.9-10.2-130.3-3.6
				c-140,23.3-243.8,150.9-293.2,224.9c-25.1,37.5-47.6,76.7-64.4,106.7c-8.1,14.4-16.1,28.9-24.1,43.3
				c-34.2,62-69.6,126.1-112.1,184.1c-90,122.9-205.4,196.1-316.5,200.9C1494.1,1081.8,1489.7,1081.9,1485.3,1081.9z"/>
		</g>
		<g>
			
				<linearGradient id="SVGID_33_" gradientUnits="userSpaceOnUse" x1="3912.665" y1="704.8542" x2="7213.7813" y2="704.8542" gradientTransform="matrix(-1 0 0 -1 7213.77 1336.2589)">
				<stop  offset="0" style="stop-color:#0A48BF"/>
				<stop  offset="0.1347" style="stop-color:#355AC7"/>
				<stop  offset="0.3723" style="stop-color:#7C77D3"/>
				<stop  offset="0.5862" style="stop-color:#B48EDD"/>
				<stop  offset="0.7687" style="stop-color:#DD9FE4"/>
				<stop  offset="0.9125" style="stop-color:#F6A9E8"/>
				<stop  offset="1" style="stop-color:#FFADEA"/>
			</linearGradient>
			<path class="st33" d="M1493.9,1064.8c-1,0-2.1,0-3.1,0c-155-1.8-271-127.6-367.5-245.3c-16.5-20-33-40.3-49.7-60.7l-21.9-26.8
				C951.3,609.3,866.6,508.4,766,421.2c-40.2-34.9-79.5-64.4-120.1-90.3c-77.2-49.5-161.7-86.4-244.2-106.8
				c-107.2-26.4-262.1-38.3-390.6,55.2c-1.6,1.2-3.9,0.8-5.1-0.8c-1.2-1.6-0.8-3.9,0.8-5.1c130.8-95.1,287.9-83.1,396.7-56.3
				c83.3,20.6,168.5,57.8,246.4,107.7c40.9,26.1,80.4,55.8,121,90.9c109,94.5,207.4,215,286.5,311.7l21.9,26.8
				c16.7,20.4,33.2,40.6,49.7,60.7c95.5,116.4,210.1,240.8,362,242.6c156.8,1.9,271.8-134.2,313.8-192.8
				c41-57.1,74.7-120.5,107.4-181.8c8.4-15.9,16.9-31.7,25.5-47.5c16.5-30.3,38.7-70,63.9-108.1c50.3-76.1,156.9-205.9,305-220.4
				c41.4-4.1,86,0.8,136.5,14.8c45.6,12.7,91.3,31.4,135.4,49.6c111.5,45.9,216.9,89.2,323.9,42.9c48.1-20.8,87-57.6,124.6-93.3
				c20.5-19.5,41.8-39.6,64.4-57c81.7-63.1,153.3-70.6,201.5-21.1c1.4,1.4,1.4,3.8-0.1,5.2c-1.4,1.4-3.8,1.4-5.2-0.1
				c-61.1-62.7-146.4-13.2-191.8,21.8c-22.3,17.2-43.4,37.2-63.8,56.5c-38.1,36.1-77.5,73.4-126.8,94.7
				c-109.8,47.5-216.6,3.6-329.6-42.9c-43.9-18.1-89.3-36.7-134.6-49.3c-49.6-13.8-93.3-18.6-133.8-14.6
				c-145.1,14.2-250,142.2-299.6,217.2c-25.1,37.9-47.1,77.4-63.5,107.6c-8.6,15.8-17,31.6-25.4,47.4
				c-32.8,61.5-66.7,125.1-107.9,182.7C1721.2,993.6,1605.9,1064.8,1493.9,1064.8z"/>
		</g>
		<g>
			
				<linearGradient id="SVGID_34_" gradientUnits="userSpaceOnUse" x1="3912.6646" y1="725.1117" x2="7213.7808" y2="725.1117" gradientTransform="matrix(-1 0 0 -1 7213.77 1336.2589)">
				<stop  offset="0" style="stop-color:#0A48BF"/>
				<stop  offset="0.1347" style="stop-color:#355AC7"/>
				<stop  offset="0.3723" style="stop-color:#7C77D3"/>
				<stop  offset="0.5862" style="stop-color:#B48EDD"/>
				<stop  offset="0.7687" style="stop-color:#DD9FE4"/>
				<stop  offset="0.9125" style="stop-color:#F6A9E8"/>
				<stop  offset="1" style="stop-color:#FFADEA"/>
			</linearGradient>
			<path class="st34" d="M1499.2,1048.5c-5.4,0-10.8-0.2-16.2-0.5c-150.1-9.9-257.8-142.8-355.2-278.2
				C996.4,587.2,851.3,399.5,652,286.2C475.1,185.6,201.1,120,11.2,266.1c-1.6,1.2-3.9,0.9-5.1-0.7s-0.9-3.9,0.7-5.1
				c192.8-148.2,470.1-82.1,648.9,19.6c200.6,114,346.2,302.5,478.1,485.7c96.4,133.9,202.9,265.5,349.8,275.1
				c110.5,7.3,229-62.9,316.7-187.7c39.8-56.7,72.2-119.8,103.5-180.8c27.5-53.6,56-109.1,89.6-160.3
				c86.1-131.5,199.8-209,311.9-212.8c94.8-3.3,186.3,43,274.8,87.7c113.5,57.3,220.7,111.5,328.5,63.6
				c48.4-21.5,86.3-61.5,123-100.2c19.5-20.6,39.7-41.9,61.4-60.4c80.3-68.6,153.2-77.2,200-23.5c1.3,1.5,1.2,3.8-0.4,5.2
				c-1.5,1.3-3.8,1.2-5.2-0.4c-59.9-68.7-144.6-14.3-189.7,24.3c-21.4,18.3-41.4,39.4-60.8,59.9c-37.1,39.2-75.6,79.8-125.3,101.9
				c-111,49.3-219.7-5.6-334.8-63.7c-87.7-44.3-178.4-90.1-271.2-86.9c-109.6,3.7-221.2,80.1-306,209.5
				c-33.3,50.9-61.7,106.1-89.2,159.6c-31.4,61.2-63.9,124.5-104.1,181.6C1721.3,978,1607.7,1048.5,1499.2,1048.5z"/>
		</g>
		<g>
			
				<linearGradient id="SVGID_35_" gradientUnits="userSpaceOnUse" x1="3912.665" y1="730.5482" x2="7213.7808" y2="730.5482" gradientTransform="matrix(-1 0 0 -1 7213.77 1336.2589)">
				<stop  offset="0" style="stop-color:#0A48BF"/>
				<stop  offset="0.1347" style="stop-color:#355AC7"/>
				<stop  offset="0.3723" style="stop-color:#7C77D3"/>
				<stop  offset="0.5862" style="stop-color:#B48EDD"/>
				<stop  offset="0.7687" style="stop-color:#DD9FE4"/>
				<stop  offset="0.9125" style="stop-color:#F6A9E8"/>
				<stop  offset="1" style="stop-color:#FFADEA"/>
			</linearGradient>
			<path class="st35" d="M1498.4,992.2c-4.5,0-9.1-0.1-13.7-0.3c-157.2-7.7-272.8-144.9-357.2-245c-135.8-161.3-285-327-482.7-426.8
				C461.7,228,199.1,174.6,11,301.1c-1.7,1.1-4,0.7-5.1-1s-0.7-4,1-5.1c190.7-128.2,456.2-74.5,641.2,18.5
				c199,100.4,348.7,266.8,485,428.7c83.5,99.1,198,234.9,352,242.4c154.5,7.6,273.2-117.9,317.1-172.1
				c40.3-49.8,74.1-104.4,106.9-157.3c6.7-10.7,13.3-21.5,20-32.2c23.2-37.1,48.6-76.5,77.4-113.6
				c52.2-67.3,161.3-179.7,307.5-179.7c0.8,0,1.5,0,2.3,0c91.4,0.8,180.1,45.6,266,88.9C2695,475.5,2801,529,2908.7,486.7
				c49.1-19.1,86.7-54.6,126.5-92.1c19-17.9,38.7-36.5,59.5-52.8c80.8-63.4,151.1-72.6,197.9-26.1c1.4,1.4,1.4,3.7,0,5.2
				c-1.4,1.4-3.7,1.4-5.2,0c-59.2-58.8-143.4-8.6-188.2,26.6c-20.6,16.2-40.1,34.6-59,52.4c-38.6,36.3-78.4,73.9-128.9,93.6
				c-110.7,43.5-223.3-13.3-332.1-68.2c-85.4-43.1-173.4-87.5-263.1-88.3c-144.2-1.5-252.3,110.3-303.9,176.9
				c-28.6,36.8-53.9,76.1-77,113c-6.7,10.7-13.3,21.4-20,32.1c-32.9,53.1-66.8,107.9-107.4,158.1
				C1764.6,870.6,1649.6,992.2,1498.4,992.2z"/>
		</g>
		<g>
			
				<linearGradient id="SVGID_36_" gradientUnits="userSpaceOnUse" x1="3912.666" y1="735.7726" x2="7213.7813" y2="735.7726" gradientTransform="matrix(-1 0 0 -1 7213.77 1336.2589)">
				<stop  offset="0" style="stop-color:#0A48BF"/>
				<stop  offset="0.1347" style="stop-color:#355AC7"/>
				<stop  offset="0.3723" style="stop-color:#7C77D3"/>
				<stop  offset="0.5862" style="stop-color:#B48EDD"/>
				<stop  offset="0.7687" style="stop-color:#DD9FE4"/>
				<stop  offset="0.9125" style="stop-color:#F6A9E8"/>
				<stop  offset="1" style="stop-color:#FFADEA"/>
			</linearGradient>
			<path class="st36" d="M1496,936c-3.2,0-6.4,0-9.6-0.2c-151.7-4.9-266.8-119.6-359.2-211.9c-140-139.8-293.2-283.5-489.7-370
				c-180.8-79-440.3-125.1-626.7-17.8c-1.8,1-4,0.4-5-1.3c-1-1.8-0.4-4,1.3-5c160.3-92.3,397.1-85.8,633.3,17.4
				c197.7,87,351.4,231.3,491.9,371.6c91.6,91.3,205.5,205,354.3,209.7c144,4.7,260.7-96.1,317.5-156.5
				c40-42.4,74.6-88.3,108.1-132.7c8.7-11.5,17.3-22.9,26-34.3c24.4-31.9,51.1-65.9,81.3-98.1c66.2-70.7,173.2-153.5,307.7-146.6
				c87.9,4.7,173.7,48,256.7,89.8l3.9,1.9c104.7,52.8,212.9,107.4,321,71c50.1-16.9,89.3-49.6,130.9-84.2
				c18.2-15.2,37.1-30.9,56.9-45c56.6-40.5,136.6-78.3,195.8-28.6c1.5,1.3,1.8,3.6,0.5,5.2s-3.6,1.8-5.2,0.5
				c-55.6-46.7-132.3-10-186.8,29c-19.5,14-38.3,29.6-56.4,44.7c-40.2,33.5-81.9,68.1-133.2,85.5c-111,37.4-220.6-17.9-326.6-71.4
				l-3.9-1.9c-82.3-41.5-167.4-84.4-253.8-89c-131.6-6.9-236.9,74.7-301.9,144.3c-30,32-56.6,65.8-80.8,97.5
				c-8.7,11.3-17.3,22.8-26,34.3c-33.6,44.5-68.4,90.6-108.6,133.3C1753.1,837,1638.4,936,1496,936z"/>
		</g>
		<g>
			
				<linearGradient id="SVGID_37_" gradientUnits="userSpaceOnUse" x1="3912.6655" y1="740.5942" x2="7213.7813" y2="740.5942" gradientTransform="matrix(-1 0 0 -1 7213.77 1336.2589)">
				<stop  offset="0" style="stop-color:#0A48BF"/>
				<stop  offset="0.1347" style="stop-color:#355AC7"/>
				<stop  offset="0.3723" style="stop-color:#7C77D3"/>
				<stop  offset="0.5862" style="stop-color:#B48EDD"/>
				<stop  offset="0.7687" style="stop-color:#DD9FE4"/>
				<stop  offset="0.9125" style="stop-color:#F6A9E8"/>
				<stop  offset="1" style="stop-color:#FFADEA"/>
			</linearGradient>
			<path class="st37" d="M1492.6,879.8c-1.5,0-3,0-4.5,0c-145.8-2.1-259.3-95.2-359.4-177.3l-1.7-1.4
				c-144-118.4-301-240-496.7-313.4c-231.3-85.6-463-91.9-619.8-16.6c-1.8,0.9-4,0.1-4.9-1.7c-0.9-1.8-0.1-4,1.7-4.9
				c158.6-76.1,392.4-70,625.5,16.4c196.8,73.8,354.3,195.8,498.8,314.6l1.7,1.4c99.2,81.4,211.6,173.6,354.9,175.6
				c131.4,1.5,245.6-75.7,318-140.9c38.5-34.6,72.9-71.4,106.1-107c11.8-12.6,23.5-25.2,35.3-37.5c24.2-25.4,53.2-55.1,85.2-82.6
				c68.1-58.8,176.4-126.1,305.5-113.5c84.2,8.4,166.8,50.1,246.7,90.4l8,4.1c97.2,49,207.4,104.6,315.8,74
				c51.5-14.6,92.8-44.6,136.6-76.4c17.1-12.4,34.7-25.2,52.9-37c81.7-52.8,146.8-63.3,193.6-31.2c1.7,1.1,2.1,3.4,0.9,5.1
				c-1.1,1.7-3.4,2.1-5.1,0.9c-44.1-30.3-106.5-19.7-185.5,31.3c-18.1,11.7-35.6,24.4-52.6,36.8c-44.3,32.2-86.1,62.6-138.9,77.5
				c-111.2,31.4-222.7-24.9-321.1-74.5l-8-4.1c-79.3-40-161.3-81.4-244.2-89.7c-126.5-12.4-232.9,53.9-300,111.7
				c-31.8,27.2-60.7,56.8-84.7,82.1c-11.8,12.3-23.5,24.9-35.3,37.5c-33.4,35.7-67.8,72.6-106.6,107.4
				C1738.6,802.4,1624.7,879.8,1492.6,879.8z"/>
		</g>
		<g>
			
				<linearGradient id="SVGID_38_" gradientUnits="userSpaceOnUse" x1="3912.6646" y1="745.9717" x2="7213.7822" y2="745.9717" gradientTransform="matrix(-1 0 0 -1 7213.77 1336.2589)">
				<stop  offset="0" style="stop-color:#0A48BF"/>
				<stop  offset="0.1347" style="stop-color:#355AC7"/>
				<stop  offset="0.3723" style="stop-color:#7C77D3"/>
				<stop  offset="0.5862" style="stop-color:#B48EDD"/>
				<stop  offset="0.7687" style="stop-color:#DD9FE4"/>
				<stop  offset="0.9125" style="stop-color:#F6A9E8"/>
				<stop  offset="1" style="stop-color:#FFADEA"/>
			</linearGradient>
			<path class="st38" d="M1488.3,823.7c-139.1,0-252.5-74.2-352.6-139.7l-8.9-5.8C978.5,581,817.4,481,623.1,421.6
				c-109.4-33.5-387.9-102-612.9-15.5c-1.9,0.7-4-0.2-4.7-2.1s0.2-4,2.1-4.7c227.1-87.3,507.5-18.4,617.6,15.3
				c195.3,59.7,356.8,160,505.6,257.5l8.9,5.8c99.2,64.9,211.7,138.5,348.6,138.5c0.5,0,1,0,1.5,0c101.2-0.5,208.4-42.7,318.5-125.3
				c36-26.9,69-54.9,100.9-82c15.7-13.3,31.9-27,47.8-40.1c23.5-19.3,54.9-44.3,89.2-67.1c102.1-67.9,204.2-94.9,303.3-80.3
				c80.3,12,159.5,52,236,90.7l13,6.5c110.3,55.6,209.9,99.8,310.7,77c53.7-12.1,97.6-39.7,144.1-69c15.2-9.6,31-19.5,47.1-28.8
				c82.3-47.5,144.9-58.5,191.3-33.7c1.8,1,2.5,3.2,1.5,5s-3.2,2.5-5,1.5c-44-23.5-104.3-12.5-184.2,33.6
				c-16,9.2-31.7,19.1-46.9,28.6c-47.1,29.6-91.5,57.5-146.4,69.9c-103.2,23.3-204-21.3-315.6-77.6l-13-6.5
				c-76.1-38.4-154.7-78.1-233.8-90c-97.2-14.3-197.6,12.3-298.1,79.2c-34,22.6-65.2,47.5-88.6,66.7c-15.9,13-31.4,26.1-47.7,40
				c-32,27.1-65.1,55.2-101.3,82.2c-111.4,83.6-220,126.2-322.9,126.8C1489.3,823.7,1488.8,823.7,1488.3,823.7z"/>
		</g>
		<g>
			
				<linearGradient id="SVGID_39_" gradientUnits="userSpaceOnUse" x1="3912.6658" y1="751.076" x2="7213.7827" y2="751.076" gradientTransform="matrix(-1 0 0 -1 7213.77 1336.2589)">
				<stop  offset="0" style="stop-color:#0A48BF"/>
				<stop  offset="0.1347" style="stop-color:#355AC7"/>
				<stop  offset="0.3723" style="stop-color:#7C77D3"/>
				<stop  offset="0.5862" style="stop-color:#B48EDD"/>
				<stop  offset="0.7687" style="stop-color:#DD9FE4"/>
				<stop  offset="0.9125" style="stop-color:#F6A9E8"/>
				<stop  offset="1" style="stop-color:#FFADEA"/>
			</linearGradient>
			<path class="st39" d="M1481.1,767.7c-129.2,0-239.6-55.1-337.3-103.9l-17.2-8.6C975.2,579.6,811,502,615.9,455.4
				C481.8,423.4,224.7,379,10,441.1c-1.9,0.6-4-0.6-4.5-2.5c-0.6-1.9,0.6-4,2.5-4.5c216.3-62.6,474.8-17.9,609.6,14.2
				c195.9,46.8,360.5,124.6,512.3,200.4l17.2,8.6c99.6,49.7,212.4,106,344.3,103.1c97.4-2.4,201.8-38.3,319.1-109.7
				c29.7-18,57.8-36.3,85-54.1c24.4-15.9,47.5-31,71.1-45.5c35.1-21.5,64.7-37.9,93.1-51.6c105.8-51,204.3-66.4,301-47.2
				c76,15.3,151.3,53.4,224.1,90.3l19.1,9.6c103.1,51.9,204.1,97.1,305.6,80c56.8-9.6,104.3-35,154.7-61.9
				c12.6-6.7,25.3-13.5,38.3-20.1c52.3-26.6,128.8-59.3,189-36.2c1.9,0.7,2.8,2.8,2.1,4.7s-2.9,2.8-4.7,2.1
				c-57.5-22-132,10-183,35.9c-12.9,6.6-25.6,13.3-38.1,20.1c-50.9,27.2-98.9,52.9-156.9,62.7c-103.7,17.5-205.9-28.2-310.1-80.7
				l-19.1-9.6c-72.4-36.6-147.3-74.5-222.3-89.6c-95.1-18.9-192-3.7-296.3,46.6c-28.2,13.6-57.6,29.9-92.5,51.2
				c-23.6,14.4-46.6,29.5-70.9,45.4c-27.2,17.8-55.4,36.2-85.2,54.2c-118.4,72.1-224,108.3-322.7,110.7
				C1488,767.7,1484.6,767.7,1481.1,767.7z"/>
		</g>
		<g>
			
				<linearGradient id="SVGID_40_" gradientUnits="userSpaceOnUse" x1="3912.666" y1="756.0136" x2="7213.7808" y2="756.0136" gradientTransform="matrix(-1 0 0 -1 7213.77 1336.2589)">
				<stop  offset="0" style="stop-color:#0A48BF"/>
				<stop  offset="0.1347" style="stop-color:#355AC7"/>
				<stop  offset="0.3723" style="stop-color:#7C77D3"/>
				<stop  offset="0.5862" style="stop-color:#B48EDD"/>
				<stop  offset="0.7687" style="stop-color:#DD9FE4"/>
				<stop  offset="0.9125" style="stop-color:#F6A9E8"/>
				<stop  offset="1" style="stop-color:#FFADEA"/>
			</linearGradient>
			<path class="st40" d="M1468.9,712.1c-116.7,0-217.5-35.7-315.2-70.2c-9.1-3.2-18.1-6.4-27.1-9.6
				c-181.5-63.8-339-112.6-517.9-143.1c-162.1-27.7-397.6-52.4-599-13.2c-2,0.4-3.9-0.9-4.3-2.9s0.9-3.9,2.9-4.3
				c202.6-39.4,439-14.6,601.7,13.2c179.4,30.6,337.2,79.5,519.1,143.4c9,3.1,18,6.3,27.2,9.6c103.8,36.7,211.1,74.6,336.8,69.3
				c119.4-5.3,233.6-53,319.7-94.1c18.5-8.8,36.5-17.5,54.2-26.1c37.6-18.3,73.2-35.6,109.3-51c34.9-14.9,66.6-26.7,97-36.1
				c107.3-33.2,205-37.8,298.6-14.1c71.1,18.2,142.1,54.2,210.7,89c8.9,4.5,17.8,9.1,26.8,13.6c95.8,48.2,197.9,94.4,300.5,83
				c61.7-6.8,114.5-30.5,170.4-55.5c8-3.6,16.1-7.2,24.3-10.8c60.3-26.6,129.7-51.9,186.5-38.7c2,0.5,3.2,2.4,2.7,4.4
				s-2.5,3.2-4.4,2.7c-54.8-12.7-122.7,12.2-181.9,38.3c-8.2,3.6-16.2,7.2-24.2,10.8c-56.4,25.3-109.7,49.1-172.6,56.1
				c-104.6,11.5-207.8-35.1-304.6-83.8c-8.9-4.5-17.9-9-26.8-13.6c-68.2-34.6-138.8-70.4-209.1-88.5c-92.3-23.4-188.6-18.8-294.6,14
				c-30.2,9.3-61.7,21-96.3,35.8c-36,15.3-71.4,32.6-109,50.8c-17.7,8.6-35.7,17.3-54.3,26.1c-86.7,41.3-201.7,89.4-322.5,94.8
				C1485,711.9,1476.9,712.1,1468.9,712.1z"/>
		</g>
		<g>
			
				<linearGradient id="SVGID_41_" gradientUnits="userSpaceOnUse" x1="3912.6638" y1="736.7778" x2="7213.7813" y2="736.7778" gradientTransform="matrix(-1 0 0 -1 7213.77 1336.2589)">
				<stop  offset="0" style="stop-color:#0A48BF"/>
				<stop  offset="0.1347" style="stop-color:#355AC7"/>
				<stop  offset="0.3723" style="stop-color:#7C77D3"/>
				<stop  offset="0.5862" style="stop-color:#B48EDD"/>
				<stop  offset="0.7687" style="stop-color:#DD9FE4"/>
				<stop  offset="0.9125" style="stop-color:#F6A9E8"/>
				<stop  offset="1" style="stop-color:#FFADEA"/>
			</linearGradient>
			<path class="st41" d="M2893.7,712.7c-100.3,0-198-44.8-282.5-87.2c-12.4-6.2-24.7-12.5-37.1-18.8c-63.2-32.3-128.6-65.6-193.4-86
				c-90.7-28.2-186.5-34.3-292.9-18.7c-32.6,4.8-65.4,11.5-100.2,20.4c-55.7,14.3-111.4,33.8-170.3,54.4
				c-106.3,37.4-211,71.6-322.3,78.8c-119.8,7.6-225.8-15.4-328.3-37.6c-13.5-2.9-26.8-5.8-40.1-8.6
				c-146.9-31.2-324.2-65.8-525-86.3C367,499.2,167.7,495.1,9.4,511c-2,0.2-3.8-1.3-4-3.3s1.3-3.8,3.3-4
				c158.8-16,358.5-11.9,593.7,12.1c201.2,20.5,378.7,55.2,525.8,86.4c13.3,2.8,26.7,5.7,40.2,8.6c102.1,22.1,207.6,45,326.3,37.4
				C1605,641,1709.2,607,1815,569.8c59.1-20.7,114.9-40.2,170.9-54.5c35-9,68.1-15.7,101-20.6c107.5-15.8,204.4-9.6,296.2,18.9
				c65.5,20.6,131.1,54,194.6,86.4c12.3,6.3,24.7,12.6,37.1,18.8c88.3,44.4,191.1,91.3,295.4,86.1c70-3.5,131.1-26.3,195.8-50.4
				c63.2-23.5,129-45.9,184.6-41.4c2,0.2,3.5,1.9,3.4,4c-0.2,2-1.9,3.5-4,3.4c-54-4.4-119,17.7-180.9,40.7
				c-65.9,24.5-127.5,47.5-198.6,51.1C2904.7,712.5,2899.2,712.7,2893.7,712.7z"/>
		</g>
		<g>
			
				<linearGradient id="SVGID_42_" gradientUnits="userSpaceOnUse" x1="3912.6641" y1="715.6964" x2="7213.7808" y2="715.6964" gradientTransform="matrix(-1 0 0 -1 7213.77 1336.2589)">
				<stop  offset="0" style="stop-color:#0A48BF"/>
				<stop  offset="0.1347" style="stop-color:#355AC7"/>
				<stop  offset="0.3723" style="stop-color:#7C77D3"/>
				<stop  offset="0.5862" style="stop-color:#B48EDD"/>
				<stop  offset="0.7687" style="stop-color:#DD9FE4"/>
				<stop  offset="0.9125" style="stop-color:#F6A9E8"/>
				<stop  offset="1" style="stop-color:#FFADEA"/>
			</linearGradient>
			<path class="st42" d="M2915,748.7c-1.6,0-3.3,0-4.9,0c-103.3-1.1-206.3-46.1-293.5-89.9c-17.3-8.7-34.5-17.6-51.7-26.4
				c-56.8-29.2-115.4-59.4-173.4-81.2c-91.1-33.9-186.4-50.8-291.2-51.4c-35-0.3-69,1.4-104.1,5c-51,5.2-104.1,14.7-177.4,31.8
				c-16.1,3.8-32.5,7.7-49.2,11.8c-83.2,20.1-177.6,42.9-272.8,51.1c-110.3,9.3-212,0.4-310.4-8.1c-20.1-1.8-40-3.5-59.8-5.1
				c-170.8-13.7-344.8-23.3-532.1-29.4C396.7,550.4,189.1,544.6,9,545.8c-2,0-3.7-1.6-3.7-3.6s1.6-3.7,3.6-3.7
				c180.2-1.3,388,4.5,585.6,11c187.4,6.1,361.6,15.7,532.5,29.4c19.8,1.6,39.7,3.3,59.8,5.1c98.1,8.6,199.5,17.4,309.2,8.1
				c94.6-8.1,188.7-30.9,271.7-50.9c16.7-4,33.2-8,49.3-11.8c73.7-17.2,127-26.7,178.4-32c35.3-3.6,69.6-5.3,104.9-5
				c105.7,0.7,201.8,17.6,293.8,51.9c58.4,21.9,117.3,52.2,174.2,81.6c17.2,8.8,34.4,17.7,51.6,26.4c86.5,43.5,188.6,88,290.3,89.1
				c66.9,0.7,127.6-13.4,198.1-34.9l16.9-5.2c56-17.2,113.9-34.9,164.6-38.4c2.1-0.1,3.8,1.4,3.9,3.4c0.1,2-1.4,3.8-3.4,3.9
				c-49.8,3.3-107.3,21-163,38l-16.9,5.2C3041,734.6,2980.9,748.7,2915,748.7z"/>
		</g>
		<g>
			
				<linearGradient id="SVGID_43_" gradientUnits="userSpaceOnUse" x1="3912.6646" y1="703.5577" x2="7213.7803" y2="703.5577" gradientTransform="matrix(-1 0 0 -1 7213.77 1336.2589)">
				<stop  offset="0" style="stop-color:#0A48BF"/>
				<stop  offset="0.1347" style="stop-color:#355AC7"/>
				<stop  offset="0.3723" style="stop-color:#7C77D3"/>
				<stop  offset="0.5862" style="stop-color:#B48EDD"/>
				<stop  offset="0.7687" style="stop-color:#DD9FE4"/>
				<stop  offset="0.9125" style="stop-color:#F6A9E8"/>
				<stop  offset="1" style="stop-color:#FFADEA"/>
			</linearGradient>
			<path class="st43" d="M2949.9,786.5c-13.5,0-26.8-0.5-40-1.5c-106.8-7.8-210-53.8-288-92.9c-24.8-12.5-49.9-25.6-74.1-38.3
				c-47.7-25-97-50.8-145.6-72.2c-95.5-41.8-190.2-69.4-289.5-84.3c-36.9-5.7-72.2-9.1-108-10.4c-55.9-2.3-114.5,0.7-184.6,9.3
				c-44.6,5.5-90,12.9-138.1,20.6c-59.6,9.6-121.3,19.6-183.6,26.3c-93.8,10-183.9,13-271,16c-33.2,1.1-67.6,2.3-100.9,3.8
				c-74.5,3.3-147.8,7.5-225.3,11.9c-101.7,5.8-206.8,11.7-313.9,15.6c-208.5,8.2-408.6,4.8-578.5-9.8c-2-0.2-3.5-1.9-3.3-4
				c0.2-2,1.9-3.5,4-3.3c169.6,14.7,369.4,18.1,577.6,9.8c107-3.9,212.1-9.8,313.8-15.6c77.6-4.4,150.9-8.6,225.4-11.9
				c33.4-1.5,67.8-2.7,101-3.8c87-2.9,177-6,270.5-15.9c62.2-6.7,123.7-16.7,183.3-26.3c48.2-7.8,93.6-15.1,138.3-20.7
				c70.4-8.7,129.5-11.6,185.7-9.3c36,1.4,71.6,4.8,108.8,10.5c100,15,195.3,42.7,291.4,84.8c48.8,21.5,98.3,47.4,146.1,72.4
				c24.2,12.7,49.2,25.8,74,38.2c77.4,38.9,179.7,84.5,285.2,92.2c61.9,4.5,125.4-1.6,199.9-19.2c27.5-6.5,55.5-14.1,82.6-21.4
				c33.9-9.2,65.9-17.8,96.4-24.4c2-0.4,3.9,0.8,4.4,2.8c0.4,2-0.8,3.9-2.8,4.4c-30.4,6.5-62.3,15.2-96.1,24.3
				c-27.1,7.3-55.2,14.9-82.8,21.5C3052.6,779.7,3000.1,786.5,2949.9,786.5z"/>
		</g>
		<g>
			
				<linearGradient id="SVGID_44_" gradientUnits="userSpaceOnUse" x1="3912.6643" y1="698.2924" x2="7213.7817" y2="698.2924" gradientTransform="matrix(-1 0 0 -1 7213.77 1336.2589)">
				<stop  offset="0" style="stop-color:#0A48BF"/>
				<stop  offset="0.1347" style="stop-color:#355AC7"/>
				<stop  offset="0.3723" style="stop-color:#7C77D3"/>
				<stop  offset="0.5862" style="stop-color:#B48EDD"/>
				<stop  offset="0.7687" style="stop-color:#DD9FE4"/>
				<stop  offset="0.9125" style="stop-color:#F6A9E8"/>
				<stop  offset="1" style="stop-color:#FFADEA"/>
			</linearGradient>
			<path class="st44" d="M2999.5,827.7c-30,0-59.9-2.1-89.9-6.3c-84.1-11.4-176.5-42.8-282.5-96c-38.2-19.2-76.5-39.9-113.6-59.9
				c-33-17.8-67.2-36.3-100.7-53.4c-104.9-53.3-199-91.6-287.7-117.1c-38.6-11.2-75.2-19.6-111.9-25.8
				c-60.1-10.2-122.8-14.5-191.7-13.2c-98,1.9-197.9,15-303.7,28.8l-17.8,2.3c-123.3,16-250.9,32.5-373.7,52.6
				c-46.3,7.6-93.6,15.7-139.3,23.5c-132.5,22.7-269.6,46.1-407,60.9C361.8,648,174.8,645.2,8.3,615.3c-2-0.4-3.3-2.3-3-4.3
				c0.4-2,2.2-3.3,4.3-3c165.8,29.7,352.1,32.5,569.6,8.7c137.2-14.8,274.2-38.2,406.6-60.9c45.7-7.8,93-15.9,139.4-23.5
				c123-20.1,250.6-36.7,374-52.7l17.8-2.3c106-13.8,206.1-26.9,304.5-28.9c69.3-1.3,132.5,3,193.1,13.3
				c36.9,6.2,73.8,14.7,112.7,26c89.2,25.7,183.7,64.2,289,117.6c33.7,17.1,67.8,35.6,100.9,53.4c37,20,75.2,40.6,113.4,59.8
				c105.2,52.8,196.9,84,280.2,95.3c66.9,9.3,132.9,8.1,201.7-3.5c55-9.3,114.4-25.5,176.5-48.1c1.9-0.7,4,0.3,4.7,2.2
				s-0.3,4-2.2,4.7c-62.6,22.7-122.4,39-177.8,48.4C3074.9,824.4,3037.1,827.7,2999.5,827.7z"/>
		</g>
		<g>
			
				<linearGradient id="SVGID_45_" gradientUnits="userSpaceOnUse" x1="3912.665" y1="696.8622" x2="7213.7808" y2="696.8622" gradientTransform="matrix(-1 0 0 -1 7213.77 1336.2589)">
				<stop  offset="0" style="stop-color:#0A48BF"/>
				<stop  offset="0.1347" style="stop-color:#355AC7"/>
				<stop  offset="0.3723" style="stop-color:#7C77D3"/>
				<stop  offset="0.5862" style="stop-color:#B48EDD"/>
				<stop  offset="0.7687" style="stop-color:#DD9FE4"/>
				<stop  offset="0.9125" style="stop-color:#F6A9E8"/>
				<stop  offset="1" style="stop-color:#FFADEA"/>
			</linearGradient>
			<path class="st45" d="M3054,873.5c-152.8,0-304.4-56-421.5-114.7c-68.7-34.5-136.6-74-202.3-112.2
				c-129.4-75.3-263.2-153.2-408.3-195.1c-330-95.2-675.9,2.7-1010.5,97.4C679.9,642.7,337.1,739.7,8,650.3c-2-0.5-3.1-2.5-2.6-4.5
				s2.5-3.1,4.5-2.6c327.1,88.8,668.9-7.9,999.5-101.4c335.6-95,682.6-193.1,1014.6-97.4c145.9,42.1,280.2,120.2,410,195.8
				c65.6,38.2,133.4,77.6,201.9,112c177.3,88.9,434.4,171.6,652.6,60.2c1.8-0.9,4-0.2,4.9,1.6s0.2,4-1.6,4.9
				C3215.5,857.9,3134.6,873.5,3054,873.5z"/>
		</g>
	</g>
</g>
</svg>
